<svg width="160" height="160" viewBox="0 0 160 160" fill="none" xmlns="http://www.w3.org/2000/svg">
<g opacity="0.6">
<path d="M13 74.9306C13 70.4045 13 68.1414 13.8594 66.4126C14.6154 64.892 15.8216 63.6557 17.3052 62.8808C18.9919 62 21.1999 62 25.6159 62H35.5079C39.9239 62 42.1318 62 43.8185 62.8808C45.3022 63.6557 46.5084 64.892 47.2644 66.4126C48.1238 68.1414 48.1238 70.4045 48.1238 74.9306V85.0694C48.1238 89.5955 48.1238 91.8586 47.2644 93.5874C46.5084 95.108 45.3022 96.3443 43.8185 97.1192C42.1318 98 39.9239 98 35.5079 98H25.6159C21.1999 98 18.9919 98 17.3052 97.1192C15.8216 96.3443 14.6154 95.108 13.8594 93.5874C13 91.8586 13 89.5955 13 85.0694V74.9306Z" fill="url(#paint0_linear_1_532)"/>
<path opacity="0.4" d="M25.7544 79.0189C26.1509 78.3151 26.3491 77.9632 26.6264 77.7073C26.8718 77.4809 27.1608 77.3098 27.4748 77.2053C27.8297 77.0871 28.2262 77.0871 29.0191 77.0871L34.761 77.0871C35.6792 77.0871 36.1384 77.0871 36.4038 77.2847C36.6353 77.4571 36.7846 77.7221 36.8145 78.0138C36.8488 78.3482 36.6192 78.7558 36.1601 79.5709L35.3656 80.9812C35.3669 80.9812 35.3677 80.9826 35.367 80.9837C34.9715 81.6859 34.7735 82.0372 34.4965 82.2928C34.2511 82.5193 33.962 82.6903 33.648 82.7949C33.2931 82.9131 32.8967 82.9131 32.1038 82.9131L26.3619 82.9131C25.4436 82.9131 24.9845 82.9131 24.7191 82.7154C24.4875 82.543 24.3383 82.278 24.3084 81.9863C24.2741 81.6519 24.5036 81.2444 24.9628 80.4293L24.6491 80.9812L25.7544 79.0189Z" fill="white"/>
<path d="M13.324 91.9873C13 90.4279 13 88.3392 13 85.0693V84.6378L34.4211 84.6378C35.3394 84.6378 35.7985 84.6378 36.064 84.8355C36.2955 85.0079 36.4447 85.2729 36.4746 85.5646C36.5089 85.899 36.2794 86.3065 35.8202 87.1216L34.1676 90.0555C33.7712 90.7592 33.573 91.1111 33.2956 91.3671C33.0503 91.5935 32.7612 91.7645 32.4472 91.8691C32.0923 91.9873 31.6959 91.9873 30.903 91.9873L13.324 91.9873Z" fill="white"/>
<path d="M47.7997 68.0126C48.1238 69.572 48.1238 71.6607 48.1238 74.9305V75.3621L26.7026 75.3621C25.7843 75.3621 25.3252 75.3621 25.0598 75.1644C24.8283 74.992 24.679 74.727 24.6491 74.4353C24.6148 74.1009 24.8444 73.6934 25.3035 72.8783L26.9561 69.9445C27.3525 69.2407 27.5508 68.8888 27.8281 68.6329C28.0734 68.4064 28.3625 68.2354 28.6765 68.1308C29.0314 68.0126 29.4279 68.0126 30.2207 68.0126L47.7997 68.0126Z" fill="white"/>
<path d="M143.65 69.239C143.65 67.7918 143.993 66.8139 145.825 66.8139H147.39C147.727 66.8139 148 66.5337 148 66.1881V63.3328C148 62.8744 147.677 62.4831 147.235 62.4162C146.59 62.3187 145.697 62.1985 145.214 62.1985C141.207 62.1985 138.612 64.2715 138.612 68.5741V70.3851H136.399C136.055 70.3851 135.826 70.6197 135.826 70.9718V74.0227C135.826 74.3747 136.055 74.6094 136.399 74.6094H138.612V88.9642C138.612 89.3162 138.841 89.5509 139.185 89.5509H143.077C143.421 89.5509 143.65 89.3162 143.65 88.9642V74.6094H147.428C147.771 74.6094 148 74.3747 148 74.0227V70.9718C148 70.6197 147.771 70.3851 147.428 70.3851H143.65V69.239Z" fill="white"/>
<path fill-rule="evenodd" clip-rule="evenodd" d="M97.3807 70.9718C97.3807 70.6197 97.1517 70.3851 96.8083 70.3851H93.2974C92.9539 70.3851 92.7631 70.6197 92.725 70.9718L92.6105 72.771C91.1985 71.1282 89.2904 69.9548 86.9244 69.9548C81.6962 69.9548 77.88 74.4138 77.88 80.0071C77.88 85.6004 81.6962 90.0594 86.9244 90.0594C89.3667 90.0594 91.2366 88.9251 92.5723 87.3214L92.725 88.9642C92.7631 89.3162 92.9539 89.5509 93.2974 89.5509H96.8083C97.1517 89.5509 97.3807 89.3162 97.3807 88.9642V70.9718ZM92.3052 79.968C92.3052 82.8624 90.2826 85.3657 87.5349 85.3657C84.7491 85.3657 82.7266 83.058 82.7266 79.968C82.7266 76.9171 84.7491 74.6485 87.5349 74.6485C90.2826 74.6485 92.3052 77.0735 92.3052 79.968Z" fill="white"/>
<path d="M113.292 71.6367C113.406 71.3629 113.406 71.0891 113.101 70.8544C112.567 70.3851 111.651 69.9548 110.582 69.9548C108.331 69.9548 106.804 71.2456 105.812 73.0839L105.659 70.9718C105.621 70.6197 105.43 70.3851 105.087 70.3851H101.385C101.042 70.3851 100.813 70.6197 100.813 70.9718V88.9642C100.813 89.3162 101.042 89.5509 101.385 89.5509H105.278C105.621 89.5509 105.85 89.3162 105.85 88.9642V78.7946C105.85 76.4477 107.377 74.6485 109.743 74.6485C110.424 74.6485 110.869 74.7865 111.237 74.9005L111.268 74.9101L111.307 74.9223C111.689 75.0396 111.994 74.9614 112.147 74.5311L113.292 71.6367Z" fill="white"/>
<path fill-rule="evenodd" clip-rule="evenodd" d="M132.585 70.3851C132.928 70.3851 133.157 70.6197 133.157 70.9718V88.9642C133.157 89.3162 132.928 89.5509 132.585 89.5509H129.074C128.731 89.5509 128.54 89.3162 128.502 88.9642L128.349 87.3214C127.013 88.9251 125.143 90.0594 122.701 90.0594C117.473 90.0594 113.657 85.6004 113.657 80.0071C113.657 74.4138 117.473 69.9548 122.701 69.9548C125.067 69.9548 126.975 71.1282 128.387 72.771L128.502 70.9718C128.54 70.6197 128.731 70.3851 129.074 70.3851H132.585ZM123.312 85.3657C126.059 85.3657 128.082 82.8624 128.082 79.968C128.082 77.0735 126.059 74.6485 123.312 74.6485C120.526 74.6485 118.503 76.9171 118.503 79.968C118.503 83.058 120.526 85.3657 123.312 85.3657Z" fill="white"/>
<path d="M63.9882 89.3913C65.2479 89.9652 66.6709 90.2521 68.2572 90.2521C69.7968 90.2521 71.1382 90.001 72.2812 89.4989C73.4476 88.9729 74.3341 88.2556 74.9406 87.3471C75.5704 86.4385 75.8854 85.4104 75.8854 84.2627C75.862 82.9477 75.5121 81.8957 74.8356 81.1066C74.1824 80.2937 73.401 79.696 72.4912 79.3134C71.5814 78.9309 70.4267 78.5603 69.027 78.2016C67.6507 77.843 66.6359 77.4963 65.9828 77.1615C65.3296 76.8029 65.003 76.2888 65.003 75.6194C65.003 75.0216 65.2363 74.5554 65.7028 74.2207C66.1927 73.8859 66.8809 73.7186 67.7673 73.7186C68.7238 73.7186 69.4819 73.9577 70.0418 74.4358C70.5047 74.7964 70.8059 75.2625 70.9455 75.8339C71.009 76.0942 71.222 76.3008 71.4837 76.3008H75.1669C75.4606 76.3008 75.6943 76.045 75.6547 75.7467C75.4228 73.9978 74.6832 72.5925 73.436 71.5308C72.0596 70.3353 70.2167 69.7376 67.9073 69.7376C66.3443 69.7376 64.9797 70.0006 63.8133 70.5266C62.6702 71.0526 61.7838 71.7699 61.1539 72.6785C60.5474 73.5871 60.2441 74.5913 60.2441 75.6911C60.2441 77.03 60.5707 78.094 61.2239 78.883C61.9004 79.6721 62.6936 80.2578 63.6033 80.6404C64.5364 81.023 65.7262 81.3936 67.1725 81.7522C68.5721 82.1348 69.5869 82.4934 70.2167 82.8281C70.8699 83.139 71.1965 83.6171 71.1965 84.2627C71.1965 84.8605 70.9282 85.3506 70.3917 85.7332C69.8785 86.1157 69.1553 86.307 68.2222 86.307C67.2658 86.307 66.461 86.0559 65.8078 85.5538C65.3054 85.1533 64.9736 84.6691 64.8126 84.1012C64.7414 83.85 64.5315 83.653 64.2763 83.653H60.326C60.0348 83.653 59.8015 83.9048 59.8436 84.2002C59.987 85.207 60.3654 86.1364 60.979 86.9884C61.7255 87.9926 62.7285 88.7936 63.9882 89.3913Z" fill="white"/>
</g>
<defs>
<linearGradient id="paint0_linear_1_532" x1="30.5619" y1="62" x2="30.5619" y2="98" gradientUnits="userSpaceOnUse">
<stop offset="0.213542" stop-color="white" stop-opacity="0.16"/>
<stop offset="1" stop-color="white" stop-opacity="0.1"/>
</linearGradient>
</defs>
</svg>
