<svg width="152" height="50" viewBox="0 0 152 50" fill="none" xmlns="http://www.w3.org/2000/svg">
<g opacity="0.6" clip-path="url(#clip0_1_601)">
<path d="M51.8145 16.9697L39.2874 4.69695C36.252 1.72346 32.2871 0.124222 28.3077 0.083313C24.3291 0.124222 20.368 1.72346 17.328 4.69695L4.80168 16.9697C3.3417 18.3883 2.1814 20.084 1.38916 21.9566C0.596916 23.8293 0.188766 25.8411 0.188766 27.8735C0.188766 29.9058 0.596916 31.9176 1.38916 33.7903C2.1814 35.663 3.3417 37.3586 4.80168 38.7772L6.384 40.3273C9.196 43.0856 23.864 49.3863 25.1803 49.9166V26.0856C25.1803 25.3591 24.6726 24.6977 23.9765 24.4288L16.166 21.3848C15.5266 21.9188 14.727 22.2252 13.8935 22.2555C13.0599 22.2859 12.24 22.0384 11.5633 21.5523C10.8866 21.0662 10.3918 20.3691 10.157 19.5713C9.92215 18.7735 9.96078 17.9205 10.2667 17.147C10.5727 16.3735 11.1285 15.7237 11.8464 15.3003C12.5643 14.877 13.4032 14.7042 14.2306 14.8092C15.058 14.9143 15.8267 15.2912 16.4152 15.8804C17.0037 16.4697 17.3783 17.2376 17.48 18.0629L25.08 21.0257C26.1095 21.4234 27.2015 21.636 28.3054 21.6538C29.41 21.6402 30.5031 21.4274 31.5316 21.0257L39.14 18.0629C39.2287 17.349 39.5223 16.6758 39.9854 16.1242C40.4486 15.5726 41.0617 15.1661 41.7511 14.9534C42.4405 14.7407 43.1768 14.7309 43.8716 14.9252C44.5664 15.1196 45.1901 15.5097 45.6678 16.0489C46.1456 16.588 46.457 17.2531 46.5647 17.9644C46.6724 18.6757 46.5718 19.4028 46.275 20.0585C45.9782 20.7141 45.4978 21.2704 44.8915 21.6605C44.2852 22.0506 43.5788 22.2579 42.8572 22.2576C41.9764 22.2604 41.1233 21.9511 40.4502 21.3848L32.6306 24.4288C31.9352 24.6977 31.4275 25.3507 31.4275 26.0856V49.9166C32.7454 49.3863 47.4096 43.0856 50.2261 40.3273L51.8062 38.7765C53.2666 37.3584 54.4274 35.6633 55.2203 33.791C56.0132 31.9187 56.4221 29.9071 56.4229 27.8748C56.4236 25.8426 56.0163 23.8307 55.2248 21.9578C54.4334 20.0849 53.2738 18.3889 51.8145 16.9697ZM28.3077 16.3985C27.4121 16.3985 26.5366 16.1337 25.792 15.6377C25.0473 15.1417 24.4669 14.4367 24.1242 13.6119C23.7815 12.7871 23.6919 11.8796 23.8667 11.004C24.0415 10.1284 24.4728 9.32415 25.1062 8.69294C25.7395 8.06172 26.5464 7.6319 27.4248 7.45783C28.3032 7.28375 29.2137 7.37325 30.0411 7.71499C30.8685 8.05673 31.5756 8.63537 32.0731 9.37774C32.5705 10.1201 32.8359 10.9928 32.8358 11.8856C32.8346 13.0822 32.3571 14.2295 31.5082 15.0756C30.6592 15.9217 29.5082 16.3975 28.3077 16.3985Z" fill="white"/>
<path d="M74.7741 9.87726H72.162V26.1182H74.7741V9.87726Z" fill="white"/>
<path d="M81.5609 26.1182H84.173V12.1704L88.9869 12.1947V9.87726H76.7798V12.1947L81.5609 12.1704V26.1182Z" fill="white"/>
<path d="M99.3525 20.2826H102.202C103.006 20.2921 103.804 20.1539 104.558 19.875C105.222 19.625 105.828 19.2447 106.342 18.7568C106.835 18.2866 107.223 17.7189 107.482 17.0902C107.755 16.439 107.892 15.7391 107.884 15.0334C107.888 14.3381 107.759 13.6484 107.504 13.0015C107.26 12.3863 106.89 11.8285 106.418 11.3637C105.923 10.8822 105.331 10.5098 104.682 10.2705C103.995 10.0008 103.217 9.87048 102.349 9.87048H96.7412V26.1099H99.3525V20.2826ZM99.3442 12.197H102.341C103.299 12.197 104.02 12.45 104.519 12.9644C105.018 13.4788 105.272 14.172 105.272 15.0372C105.272 15.9515 105.002 16.6697 104.454 17.1917C103.905 17.7137 103.162 17.975 102.193 17.975H99.3442V12.197Z" fill="white"/>
<path d="M116.252 9.87726H113.592L107.646 26.1182H110.357L111.756 22.1212H118.064L119.489 26.1204H122.199L116.252 9.87726ZM112.567 19.8773L113.779 16.4326L114.892 12.5757H114.942L116.052 16.4303L117.256 19.875L112.567 19.8773Z" fill="white"/>
<path d="M134.9 17.7773C135.547 16.944 135.866 15.9735 135.866 14.847C135.871 14.1807 135.742 13.5201 135.486 12.9046C135.236 12.3104 134.866 11.7741 134.398 11.3296C133.888 10.8577 133.286 10.4965 132.629 10.269C131.863 10.0042 131.057 9.87427 130.247 9.88488H124.277V26.1265H126.89V19.9144H129.732L133.359 26.1265H136.159L132.316 19.5235C133.396 19.1811 134.256 18.6015 134.9 17.7773ZM126.893 17.5894V12.197H130.264C131.263 12.197 132.012 12.4417 132.508 12.9235C133.003 13.4053 133.261 14.05 133.261 14.8493C133.261 15.6826 132.999 16.3515 132.451 16.8493C131.902 17.347 131.159 17.5917 130.19 17.5917L126.893 17.5894Z" fill="white"/>
<path d="M141.281 9.87726H138.669V26.1182H141.281V9.87726Z" fill="white"/>
<path d="M151.654 26.1182L144.597 17.4916L151.441 9.88483H148.445L142.206 16.7977V18.2916L148.559 26.1182H151.654Z" fill="white"/>
<path d="M73.8401 35.8387C72.8414 35.7629 72.5633 35.4796 72.5633 34.9735C72.5633 34.1978 73.128 33.9887 74.0286 33.9887C74.4466 33.9887 75.0356 34.0705 75.2651 34.1765L75.4125 33.7114C74.9601 33.586 74.4935 33.5191 74.024 33.5121C72.7882 33.5121 72.0016 33.9038 72.0016 34.9811C72.0016 35.9038 72.5504 36.2303 73.7626 36.3197C74.7612 36.3955 75.0394 36.7932 75.0394 37.2909C75.0394 38.0667 74.4253 38.2758 73.533 38.2758C73.1401 38.2758 72.5671 38.2 72.2555 38.0879L72.108 38.5531C72.5745 38.6848 73.0566 38.7534 73.5414 38.7568C74.7696 38.7568 75.5881 38.3568 75.5881 37.2879C75.5843 36.369 75.0523 35.9364 73.8401 35.8387Z" fill="white"/>
<path d="M80.1283 33.6432H76.1003V34.0758H77.8521V38.6705H78.3841V34.0758H80.1283V33.6432Z" fill="white"/>
<path d="M81.6597 33.6432C80.9636 35.3242 80.3411 36.9894 79.7597 38.6705H80.2758C80.4475 38.1402 80.6193 37.6341 80.7994 37.1197H83.2557C83.4609 37.6667 83.6737 38.1886 83.8637 38.6705H84.4527C83.8386 37.275 83.1265 35.3371 82.5527 33.6432H81.6597ZM80.9636 36.6871C81.2744 35.822 81.627 34.9485 81.9873 34.0508H82.2077C82.4866 34.9242 82.7974 35.8386 83.1083 36.6871H80.9636Z" fill="white"/>
<path d="M87.4646 36.4258C88.578 36.4258 88.9215 35.8053 88.9215 35.0955C88.9215 34.3288 88.6107 33.6432 87.4889 33.6432H85.237V38.6705H85.7614V36.4909H86.7358C87.1158 36.4909 87.7754 37.2667 88.578 38.6705H89.2331C88.464 37.397 87.8248 36.5485 87.4646 36.4258ZM85.7531 36.0341V34.0758L87.4889 34.0674C88.0376 34.0674 88.3401 34.4349 88.3401 35.0871C88.3401 35.6667 88.0361 36.0341 87.4479 36.0341H85.7531Z" fill="white"/>
<path d="M89.4292 34.0758H91.1818V38.6705H91.7138L91.7054 34.0758H93.4496V33.6432H89.4292V34.0758Z" fill="white"/>
<path d="M96.5854 37.7318V33.4553H96.1187V37.7561C96.1187 38.2864 96.2707 38.5318 96.5747 38.8167L96.935 38.5137C96.6728 38.2523 96.5914 38.0811 96.5914 37.7303L96.5854 37.7318Z" fill="white"/>
<path d="M99.2872 34.9326C98.1654 34.9326 97.6334 35.3485 97.6334 36.8341C97.6334 38.3197 98.157 38.7765 99.2872 38.7765C100.417 38.7765 100.949 38.3273 100.949 36.8341C100.949 35.3409 100.425 34.9326 99.2872 34.9326ZM99.2955 38.3416C98.436 38.3416 98.1555 38.0318 98.1555 36.8477C98.1555 35.5992 98.4344 35.3545 99.2955 35.3629C100.157 35.3712 100.442 35.6076 100.442 36.8477C100.442 38.0341 100.155 38.3439 99.2955 38.3439V38.3416Z" fill="white"/>
<path d="M103.627 35.3788C103.933 35.3725 104.237 35.4312 104.519 35.5508L104.671 35.1098C104.335 34.9987 103.984 34.9382 103.631 34.9303C102.501 34.9303 101.862 35.3462 101.862 36.8318C101.862 38.3174 102.493 38.7742 103.631 38.7742C103.987 38.7687 104.339 38.6996 104.671 38.5705L104.519 38.1379C104.237 38.2589 103.934 38.3226 103.627 38.325C102.775 38.325 102.382 38.0318 102.382 36.8477C102.382 35.6098 102.775 35.3788 103.627 35.3788Z" fill="white"/>
<path d="M106.628 34.9159C106.218 34.9196 105.81 34.98 105.417 35.0954L105.556 35.5363C105.842 35.4136 106.26 35.3651 106.604 35.3651C107.455 35.3651 107.684 35.553 107.684 36.4507C107.344 36.3719 106.995 36.3335 106.645 36.3363C105.826 36.3363 105.195 36.5076 105.195 37.5439C105.195 38.4826 105.629 38.7682 106.677 38.7682C107.133 38.7682 107.758 38.6621 108.151 38.4826V36.328C108.154 35.2273 107.696 34.9159 106.628 34.9159ZM107.684 38.1735C107.369 38.2798 107.037 38.3338 106.704 38.3333C105.944 38.3333 105.73 38.2273 105.73 37.5C105.73 36.831 105.976 36.7492 106.704 36.7492C107.034 36.7448 107.364 36.7776 107.687 36.847L107.684 38.1735Z" fill="white"/>
<path d="M109.727 33.4553H109.252V37.7561C109.252 38.2864 109.404 38.5318 109.708 38.8167L110.068 38.5137C109.806 38.2523 109.724 38.0811 109.724 37.7303L109.727 33.4553Z" fill="white"/>
<path d="M117.554 35.7727H117.07C117.069 36.267 116.921 36.7498 116.645 37.1606C116.006 36.2515 115.646 36.0182 115.285 35.9773C116.197 35.8954 116.358 35.3401 116.358 34.7447C116.358 33.9364 115.883 33.5204 114.77 33.5204C113.656 33.5204 113.181 33.975 113.181 34.7856C113.181 35.3811 113.223 35.9121 114.131 35.9932C113.173 36.0341 112.83 36.6462 112.83 37.3318C112.83 38.45 113.451 38.7712 114.622 38.7712C115.572 38.7712 115.973 38.5182 116.598 37.9227C116.75 38.15 116.918 38.4038 117.065 38.6735H117.655C117.393 38.2409 117.163 37.8651 116.934 37.5371C117.333 37.022 117.572 36.3932 117.554 35.7727ZM113.73 34.8098C113.73 34.2038 114 33.9614 114.778 33.9614C115.556 33.9614 115.842 34.2144 115.842 34.8182C115.842 35.4871 115.441 35.7651 114.72 35.7651C114 35.7651 113.73 35.4795 113.73 34.8098ZM114.631 38.3333C113.672 38.3333 113.394 38.0394 113.394 37.2727C113.394 36.4727 113.82 36.1871 114.705 36.1871C115.302 36.1871 115.777 36.6932 116.358 37.5417C115.81 38.1401 115.482 38.3333 114.631 38.3333Z" fill="white"/>
<path d="M122.409 36.3932H123.728V38.2053C123.396 38.2846 123.055 38.3255 122.713 38.3273C121.436 38.3273 120.961 37.9606 120.961 36.1242C120.961 34.2879 121.436 33.9939 122.713 33.9939C123.106 33.9939 123.647 34.0697 123.949 34.1818L124.113 33.7273C123.654 33.6022 123.181 33.5365 122.705 33.5318C121.141 33.5318 120.396 34.0621 120.396 36.1189C120.396 38.1757 121.141 38.7795 122.705 38.7795C123.155 38.7795 123.851 38.7386 124.244 38.6159V35.9773H122.41L122.409 36.3932Z" fill="white"/>
<path d="M127.583 33.5204C126.019 33.5204 125.299 34.0833 125.299 36.1318C125.299 38.2136 126.011 38.7765 127.583 38.7682C129.156 38.7598 129.876 38.2136 129.876 36.1318C129.876 34.0833 129.155 33.5204 127.583 33.5204ZM127.575 38.3197C126.298 38.3197 125.855 37.903 125.855 36.1485C125.855 34.3038 126.298 33.9614 127.575 33.9614C128.867 33.9614 129.319 34.3038 129.319 36.1485C129.319 37.903 128.869 38.3197 127.575 38.3197Z" fill="white"/>
<path d="M135.984 35.2099C135.591 35.0303 134.952 34.9243 134.51 34.9243C133.38 34.9243 132.856 35.3402 132.856 36.8258C132.856 38.3114 133.372 38.7682 134.51 38.7682C135.034 38.7682 135.337 38.6129 135.517 38.4652C135.517 39.4371 135.034 39.6818 134.183 39.6818C133.92 39.6818 133.396 39.5917 133.142 39.4697L133.003 39.9182C133.274 40.0326 133.871 40.1303 134.183 40.1303C135.323 40.1303 135.991 39.747 135.991 38.4H135.984V35.2099ZM135.528 37.8053C135.528 38.1477 135.061 38.3273 134.521 38.3273C133.661 38.3273 133.381 38.0341 133.381 36.85C133.381 35.6015 133.659 35.3735 134.521 35.3735C134.862 35.3697 135.202 35.4208 135.528 35.525V37.8053Z" fill="white"/>
<path d="M137.564 33.4553H137.089V37.7561C137.089 38.2864 137.241 38.5318 137.545 38.8167L137.905 38.5137C137.644 38.2523 137.562 38.0811 137.562 37.7303L137.564 33.4553Z" fill="white"/>
<path d="M140.257 34.9326C139.128 34.9326 138.603 35.3485 138.603 36.8341C138.603 38.3197 139.128 38.7765 140.257 38.7765C141.387 38.7765 141.919 38.3273 141.919 36.8341C141.919 35.3409 141.396 34.9326 140.257 34.9326ZM140.266 38.3416C139.406 38.3416 139.126 38.0318 139.126 36.8477C139.126 35.5992 139.404 35.3545 140.266 35.3629C141.127 35.3712 141.412 35.6076 141.412 36.8477C141.412 38.0341 141.125 38.3439 140.266 38.3439V38.3416Z" fill="white"/>
<path d="M144.417 34.9326C143.892 34.9326 143.59 35.0795 143.41 35.2265V33.4636H142.935V38.4848C143.328 38.6644 143.966 38.7704 144.408 38.7704C145.538 38.7704 146.062 38.3545 146.062 36.8606C146.062 35.3667 145.547 34.9242 144.417 34.9326ZM144.408 38.3273C144.067 38.3311 143.727 38.2799 143.401 38.1757V35.8871C143.401 35.553 143.868 35.3735 144.408 35.3735C145.268 35.3735 145.548 35.6667 145.548 36.85C145.547 38.0826 145.26 38.3273 144.408 38.3273Z" fill="white"/>
<path d="M148.371 34.9159C147.961 34.9196 147.553 34.98 147.16 35.0954L147.299 35.5363C147.585 35.4136 148.003 35.3651 148.347 35.3651C149.198 35.3651 149.427 35.553 149.427 36.4507C149.087 36.3719 148.738 36.3335 148.388 36.3363C147.569 36.3363 146.938 36.5076 146.938 37.5439C146.938 38.4826 147.372 38.7682 148.42 38.7682C148.876 38.7682 149.501 38.6621 149.894 38.4826V36.328C149.894 35.2273 149.436 34.9159 148.371 34.9159ZM149.427 38.1735C149.111 38.2811 148.779 38.3361 148.445 38.3363C147.685 38.3363 147.47 38.2303 147.47 37.503C147.47 36.8341 147.716 36.7523 148.445 36.7523C148.775 36.7479 149.105 36.7807 149.427 36.85V38.1735Z" fill="white"/>
<path d="M151.468 37.7318V33.4553H150.993V37.7561C150.993 38.2864 151.145 38.5318 151.449 38.8167L151.809 38.5137C151.548 38.2576 151.468 38.0826 151.468 37.7318Z" fill="white"/>
</g>
<defs>
<clipPath id="clip0_1_601">
<rect width="152" height="50" fill="white"/>
</clipPath>
</defs>
</svg>
