<svg width="157" height="40" viewBox="0 0 157 40" fill="none" xmlns="http://www.w3.org/2000/svg">
<g opacity="0.6">
<path d="M70.6279 22.7785H67.0475L66.02 19.5158H60.7719L59.7444 22.7785H56.164L61.5149 8.08063H65.4509L70.6279 22.7785ZM65.2375 16.9579L63.6805 12.0243C63.5777 11.668 63.4671 11.2087 63.4355 10.7098H63.3643C63.3327 11.1374 63.2616 11.565 63.1193 11.9847L61.5228 16.9579H65.2454H65.2375Z" fill="white"/>
<path d="M81.7528 12.2701L77.5006 23.5945C76.4731 26.3266 74.9477 27.6807 72.8927 27.6807C72.1103 27.6807 71.478 27.5699 70.9405 27.3956V24.8061C71.3673 25.0516 71.8257 25.1941 72.3553 25.1941C73.1694 25.1941 73.77 24.8061 74.0941 24.0221L74.6632 22.7075L70.4109 12.2305H73.9914L75.9436 18.6213C76.0463 19.0093 76.157 19.4765 76.2281 20.0388H76.2597C76.3309 19.6507 76.4336 19.1835 76.6154 18.6529L78.5992 12.2622H81.7528V12.2701Z" fill="white"/>
<path d="M87.9598 23.0245C86.2209 23.0245 84.8378 22.5256 83.8498 21.5674C82.8539 20.5696 82.3639 19.255 82.3639 17.592C82.3639 15.9289 82.8934 14.5035 83.9209 13.5057C84.9484 12.5079 86.3632 12.0486 88.1415 12.0486C89.9199 12.0486 91.2635 12.5475 92.2199 13.5057C93.2158 14.5035 93.7058 15.7785 93.7058 17.4098C93.7058 19.152 93.2079 20.5379 92.1804 21.5278C91.1134 22.5256 89.7381 23.0166 87.9598 23.0166V23.0245ZM88.0309 14.5035C87.2484 14.5035 86.6873 14.749 86.2605 15.2875C85.8336 15.8181 85.6202 16.5625 85.6202 17.5286C85.6202 19.5559 86.4343 20.5458 88.0625 20.5458C89.6907 20.5458 90.402 19.5163 90.402 17.4573C90.3704 15.4697 89.5879 14.5114 88.0309 14.5114V14.5035Z" fill="white"/>
<path d="M98.9763 22.7784H95.7515V7.22522H98.9763V22.7784Z" fill="white"/>
<path d="M112.622 16.8866C112.622 21.0045 110.812 23.0318 107.231 23.0318C103.651 23.0318 102.094 21.0441 102.094 17.1004V8.08056H103.437V16.9896C103.437 18.5892 103.754 19.7929 104.394 20.6086C105.034 21.4242 106.061 21.8123 107.405 21.8123C109.958 21.8123 111.27 20.2522 111.27 17.1242V8.07263H112.614V16.8787L112.622 16.8866Z" fill="white"/>
<path d="M123.008 22.3118C122.226 22.7711 121.27 23.0245 120.171 23.0245C119.428 23.0245 118.756 22.9215 118.155 22.6364C117.555 22.3513 117.057 21.995 116.63 21.5357C116.203 21.0764 115.887 20.5062 115.674 19.8647C115.46 19.2233 115.318 18.5185 115.318 17.7741C115.318 16.9901 115.421 16.2457 115.674 15.533C115.919 14.8203 116.274 14.2184 116.701 13.7195C117.128 13.2206 117.729 12.793 118.369 12.4762C119.041 12.1911 119.784 12.0169 120.637 12.0169C121.491 12.0169 122.305 12.1911 123.008 12.5158V13.9016C122.226 13.4027 121.412 13.1573 120.527 13.1573C119.886 13.1573 119.357 13.2602 118.859 13.5136C118.361 13.7591 117.974 14.0838 117.658 14.4718C117.341 14.8598 117.088 15.3588 116.915 15.8893C116.741 16.4199 116.67 17.0218 116.67 17.6316C116.67 18.2017 116.741 18.7323 116.883 19.2312C117.025 19.7301 117.239 20.1894 117.555 20.5775C117.871 20.9655 118.227 21.2902 118.685 21.504C119.143 21.7178 119.681 21.8604 120.313 21.8604C121.301 21.8604 122.194 21.5753 122.969 20.9734V22.3197H123L123.008 22.3118Z" fill="white"/>
<path d="M132.581 22.7784V16.6014C132.581 15.4294 132.368 14.5742 131.941 14.0119C131.514 13.4417 130.842 13.1567 129.957 13.1567C129.53 13.1567 129.143 13.2279 128.756 13.4021C128.368 13.5764 128.044 13.8298 127.76 14.1465C127.475 14.4633 127.23 14.8592 127.088 15.3186C126.914 15.7779 126.843 16.3164 126.843 16.8786V22.7388H125.531V7.22522H126.843V14.0753H126.875C127.689 12.6894 128.858 12.0163 130.384 12.0163C131.554 12.0163 132.439 12.3726 133.008 13.0854C133.609 13.7981 133.893 14.8593 133.893 16.2451V22.7467H132.581V22.7784Z" fill="white"/>
<path d="M143.874 22.7787V21.0048H143.835C143.124 22.3511 142.025 23.0321 140.539 23.0321C138.057 23.0321 136.816 21.5037 136.816 18.4549V12.278H138.128V18.2094C138.128 19.4527 138.342 20.4109 138.8 21.0127C139.259 21.6146 139.93 21.8997 140.855 21.8997C141.314 21.8997 141.709 21.8284 142.096 21.6542C142.452 21.48 142.807 21.2265 143.052 20.9098C143.337 20.593 143.55 20.1971 143.693 19.7774C143.835 19.3497 143.906 18.8508 143.906 18.2886V12.2859H145.218V22.7945H143.874V22.7787Z" fill="white"/>
<path d="M155.645 22.7783V16.744C155.645 14.3682 154.791 13.1962 153.06 13.1962C152.602 13.1962 152.175 13.2991 151.788 13.4813C151.401 13.6634 151.077 13.9089 150.792 14.2257C150.508 14.5424 150.294 14.9384 150.12 15.3581C149.946 15.7858 149.875 16.2847 149.875 16.7756V22.7783H148.563V12.2697H149.875V14.0831H149.907C150.689 12.6973 151.859 12.0242 153.416 12.0242C154.546 12.0242 155.44 12.3805 156.04 13.1249C156.641 13.8693 156.925 14.9384 156.925 16.3559V22.7467H155.653V22.7783H155.645Z" fill="white"/>
<path d="M105.455 29.9131H105.099V29.5567C104.925 29.8418 104.712 29.9844 104.388 29.9844C104.175 29.9844 103.961 29.9131 103.858 29.8102C103.716 29.7072 103.685 29.5251 103.685 29.3113C103.685 28.8836 103.93 28.6381 104.428 28.5669L105.099 28.4639C105.099 28.0759 104.957 27.862 104.641 27.862C104.356 27.862 104.111 27.965 103.898 28.1471V27.7591C104.111 27.6166 104.396 27.5453 104.68 27.5453C105.21 27.5453 105.495 27.8304 105.495 28.4006V29.9289H105.463L105.455 29.9131ZM105.068 28.7411L104.499 28.8123C104.325 28.844 104.214 28.8836 104.111 28.9549C104.04 29.0262 103.969 29.1291 103.969 29.2716C103.969 29.3746 104.001 29.4855 104.08 29.5567C104.151 29.628 104.254 29.6676 104.396 29.6676C104.57 29.6676 104.712 29.5963 104.854 29.4855C104.957 29.3429 105.028 29.2004 105.028 28.9866V28.7411H105.06H105.068Z" fill="white"/>
<path d="M107.974 27.6092L106.907 30.27C106.733 30.7293 106.448 30.9827 106.124 30.9827C106.022 30.9827 105.95 30.9827 105.879 30.951V30.6343C105.95 30.6739 106.022 30.6739 106.093 30.6739C106.267 30.6739 106.409 30.5709 106.52 30.3571L106.693 29.9295L105.808 27.625H106.235L106.875 29.3989C106.875 29.3989 106.907 29.4702 106.907 29.5731C106.907 29.5414 106.938 29.4702 106.938 29.3989L107.579 27.625H107.966L107.974 27.6092Z" fill="white"/>
<path d="M109.318 29.9535C108.962 29.9535 108.717 29.8506 108.504 29.6367C108.29 29.4229 108.187 29.1378 108.187 28.7815C108.187 28.3934 108.29 28.1083 108.504 27.8549C108.717 27.6411 109.001 27.5381 109.357 27.5381C109.713 27.5381 109.958 27.649 110.171 27.8549C110.385 28.0687 110.456 28.3538 110.456 28.7419C110.456 29.0982 110.353 29.415 110.14 29.6288C109.926 29.8426 109.642 29.9456 109.326 29.9456L109.318 29.9535ZM109.318 27.8628C109.073 27.8628 108.891 27.9341 108.749 28.1083C108.606 28.2825 108.535 28.4964 108.535 28.7815C108.535 29.0665 108.606 29.2804 108.749 29.4229C108.891 29.5655 109.065 29.6684 109.318 29.6684C109.571 29.6684 109.744 29.5971 109.887 29.4229C110.029 29.2804 110.061 29.0349 110.061 28.7498C110.061 28.4647 109.989 28.2509 109.887 28.0767C109.744 27.9341 109.571 27.8628 109.318 27.8628Z" fill="white"/>
<path d="M111.427 29.9139H111.071V26.5087H111.427V29.9139Z" fill="white"/>
<path d="M112.513 29.9139H112.158V26.5087H112.513V29.9139Z" fill="white"/>
<path d="M114.922 29.9131H114.567V29.5567C114.393 29.8418 114.179 29.9844 113.855 29.9844C113.642 29.9844 113.428 29.9131 113.326 29.8102C113.183 29.7072 113.152 29.5251 113.152 29.3113C113.152 28.8836 113.397 28.6381 113.895 28.5669L114.567 28.4639C114.567 28.0759 114.424 27.862 114.108 27.862C113.824 27.862 113.579 27.965 113.365 28.1471V27.7591C113.579 27.6166 113.863 27.5453 114.148 27.5453C114.677 27.5453 114.962 27.8304 114.962 28.4006V29.9289H114.93L114.922 29.9131ZM114.567 28.7411L113.997 28.8123C113.824 28.844 113.713 28.8836 113.61 28.9549C113.539 29.0262 113.468 29.1291 113.468 29.2716C113.468 29.3746 113.5 29.4855 113.571 29.5567C113.642 29.628 113.745 29.6676 113.887 29.6676C114.061 29.6676 114.203 29.5963 114.345 29.4855C114.448 29.3429 114.519 29.2004 114.519 28.9866V28.7411H114.551H114.567Z" fill="white"/>
<path d="M116.829 27.9583C116.757 27.9266 116.686 27.887 116.544 27.887C116.402 27.887 116.26 27.9583 116.157 28.1008C116.054 28.2434 116.015 28.4572 116.015 28.7026V29.8747H115.659V27.5623H116.015V28.0216C116.046 27.8474 116.157 27.7365 116.26 27.6336C116.362 27.5227 116.473 27.491 116.615 27.491C116.718 27.491 116.789 27.491 116.829 27.5227V27.9503V27.9583Z" fill="white"/>
<path d="M120.345 29.9136H119.99V29.5572C119.847 29.8423 119.602 29.9849 119.278 29.9849C118.749 29.9849 118.464 29.6681 118.464 28.987V27.6012H118.82V28.9158C118.82 29.4147 118.994 29.6602 119.389 29.6602C119.563 29.6602 119.705 29.5889 119.847 29.4463C119.95 29.3038 120.021 29.1296 120.021 28.9158V27.6012H120.377V29.9057H120.345V29.9136Z" fill="white"/>
<path d="M122.653 29.8109C122.479 29.9218 122.266 29.9851 122.013 29.9851C121.697 29.9851 121.412 29.8821 121.231 29.6683C121.017 29.4545 120.914 29.1694 120.914 28.8527C120.914 28.4646 121.017 28.1795 121.231 27.934C121.444 27.6886 121.729 27.5777 122.116 27.5777C122.329 27.5777 122.503 27.6094 122.645 27.6886V28.0766C122.472 27.9737 122.29 27.9024 122.116 27.9024C121.871 27.9024 121.689 27.9737 121.547 28.1479C121.405 28.3221 121.333 28.5359 121.333 28.821C121.333 29.1061 121.405 29.3199 121.547 29.4624C121.689 29.605 121.863 29.7079 122.116 29.7079C122.329 29.7079 122.503 29.6366 122.685 29.4941V29.8109H122.653Z" fill="white"/>
<path d="M125.139 29.9138H124.783V28.5993C124.783 28.1004 124.609 27.8865 124.253 27.8865C124.079 27.8865 123.937 27.9578 123.795 28.1004C123.692 28.2429 123.621 28.4171 123.621 28.6309V29.9455H123.265V26.5403H123.621V28.0291C123.795 27.744 124.048 27.6014 124.364 27.6014C124.893 27.6014 125.146 27.9182 125.146 28.528V29.9138H125.139Z" fill="white"/>
<path d="M127.682 29.9136H127.326V29.5572C127.184 29.8423 126.939 29.9849 126.615 29.9849C126.085 29.9849 125.801 29.6681 125.801 28.987V27.6012H126.157V28.9158C126.157 29.4147 126.33 29.6602 126.726 29.6602C126.899 29.6602 127.042 29.5889 127.184 29.4463C127.287 29.3038 127.358 29.1296 127.358 28.9158V27.6012H127.714V29.9057H127.674L127.682 29.9136Z" fill="white"/>
<path d="M130.33 29.914H129.975V28.5994C129.975 28.1005 129.801 27.855 129.445 27.855C129.271 27.855 129.089 27.9263 128.987 28.0688C128.876 28.2114 128.813 28.3856 128.813 28.5994V29.914H128.457V27.6016H128.813V27.9896C128.987 27.7046 129.24 27.562 129.556 27.562C129.801 27.562 130.014 27.6333 130.125 27.8075C130.227 27.9817 130.338 28.1956 130.338 28.5202V29.9061L130.33 29.914Z" fill="white"/>
<path d="M135.541 29.9139H135.186V28.5993C135.186 28.3538 135.154 28.1717 135.075 28.0292C135.004 27.8866 134.862 27.8549 134.688 27.8549C134.545 27.8549 134.403 27.9262 134.3 28.0687C134.19 28.2113 134.127 28.3855 134.127 28.5993V29.9139H133.771V28.528C133.771 28.0687 133.597 27.8549 133.241 27.8549C133.067 27.8549 132.957 27.9262 132.854 28.0687C132.743 28.2113 132.712 28.3855 132.712 28.5993V29.9139H132.356V27.6094H132.712V27.9658C132.886 27.6807 133.099 27.5381 133.423 27.5381C133.565 27.5381 133.708 27.5778 133.85 27.6807C133.961 27.752 134.063 27.8945 134.095 28.0371C134.269 27.7203 134.522 27.5778 134.877 27.5778C135.375 27.5778 135.62 27.8945 135.62 28.5043V29.9218H135.549L135.541 29.9139Z" fill="white"/>
<path d="M137.926 29.9131H137.571V29.5567C137.397 29.8418 137.183 29.9844 136.859 29.9844C136.646 29.9844 136.432 29.9131 136.33 29.8102C136.187 29.7072 136.156 29.5251 136.156 29.3113C136.156 28.8836 136.401 28.6381 136.899 28.5669L137.571 28.4639C137.571 28.0759 137.428 27.862 137.112 27.862C136.828 27.862 136.583 27.965 136.369 28.1471V27.7591C136.583 27.6166 136.867 27.5453 137.152 27.5453C137.681 27.5453 137.966 27.8304 137.966 28.4006V29.9289H137.934L137.926 29.9131ZM137.539 28.7411L136.97 28.8123C136.796 28.844 136.685 28.8836 136.583 28.9549C136.511 29.0262 136.44 29.1291 136.44 29.2716C136.44 29.3746 136.472 29.4855 136.543 29.5567C136.614 29.628 136.725 29.6676 136.859 29.6676C137.033 29.6676 137.175 29.5963 137.318 29.4855C137.42 29.3429 137.491 29.2004 137.491 28.9866V28.7411H137.523H137.539Z" fill="white"/>
<path d="M140.296 27.6092L139.513 28.7812L140.256 29.9136H139.829L139.371 29.1692C139.371 29.1692 139.3 29.0584 139.26 28.995C139.26 28.995 139.229 29.0663 139.157 29.1692L138.699 29.9136H138.272L139.055 28.7812L138.312 27.6092H138.738L139.197 28.3932C139.229 28.4645 139.268 28.4961 139.3 28.5674L139.869 27.6092H140.296Z" fill="white"/>
<path d="M140.573 29.8102V29.4221C140.787 29.5647 141 29.636 141.245 29.636C141.561 29.636 141.743 29.533 141.743 29.3192C141.743 29.2479 141.743 29.2162 141.711 29.1766L141.601 29.0658C141.601 29.0658 141.498 28.9945 141.427 28.9628C141.356 28.9311 141.285 28.8916 141.214 28.8916C141.111 28.852 141.04 28.8203 140.929 28.7886C140.826 28.7569 140.787 28.7173 140.755 28.6461C140.723 28.6065 140.652 28.5431 140.652 28.4718C140.621 28.4006 140.621 28.3293 140.621 28.2263C140.621 28.1234 140.652 28.0125 140.692 27.9412C140.723 27.87 140.795 27.7987 140.905 27.7274C140.976 27.6562 141.079 27.6245 141.19 27.5849C141.293 27.5453 141.403 27.5453 141.506 27.5453C141.719 27.5453 141.893 27.5849 142.036 27.6562V28.0442C141.862 27.9333 141.68 27.87 141.466 27.87C141.395 27.87 141.324 27.87 141.293 27.9017C141.221 27.9017 141.19 27.9333 141.15 27.9729L141.048 28.0759C141.048 28.0759 141.016 28.1471 141.016 28.2184C141.016 28.2897 141.016 28.3214 141.048 28.361C141.079 28.3926 141.119 28.4322 141.15 28.4639C141.182 28.4956 141.253 28.5352 141.293 28.5352C141.364 28.5669 141.435 28.6064 141.506 28.6064C141.609 28.646 141.68 28.6777 141.79 28.7173C141.893 28.7569 141.933 28.7886 142.004 28.8599C142.075 28.8995 142.107 28.9707 142.146 29.0341C142.178 29.1054 142.178 29.1766 142.178 29.2796C142.178 29.3825 142.146 29.4934 142.107 29.5647C142.067 29.6359 142.004 29.7072 141.893 29.7785C141.79 29.8498 141.719 29.8893 141.609 29.8893C141.506 29.921 141.395 29.921 141.253 29.921C140.968 29.9606 140.755 29.921 140.581 29.8181L140.573 29.8102Z" fill="white"/>
<path d="M144.55 29.9136H144.194V29.5572C144.052 29.8423 143.807 29.9849 143.483 29.9849C142.953 29.9849 142.668 29.6681 142.668 28.987V27.6012H143.024V28.9158C143.024 29.4147 143.198 29.6602 143.593 29.6602C143.775 29.6602 143.909 29.5889 144.052 29.4463C144.154 29.3038 144.226 29.1296 144.226 28.9158V27.6012H144.581V29.9057H144.55V29.9136Z" fill="white"/>
<path d="M145.147 29.8102V29.4221C145.361 29.5647 145.574 29.636 145.819 29.636C146.135 29.636 146.317 29.533 146.317 29.3192C146.317 29.2479 146.317 29.2162 146.285 29.1766C146.254 29.137 146.214 29.1054 146.183 29.0658C146.151 29.0262 146.08 28.9945 146.001 28.9628C145.93 28.9311 145.859 28.8916 145.787 28.8916C145.685 28.852 145.613 28.8203 145.503 28.7886C145.4 28.7569 145.361 28.7173 145.329 28.6461C145.297 28.6065 145.226 28.5431 145.226 28.4718C145.195 28.4006 145.195 28.3293 145.195 28.2263C145.195 28.1234 145.226 28.0125 145.266 27.9412C145.297 27.87 145.368 27.7987 145.479 27.7274C145.55 27.6562 145.653 27.6245 145.764 27.5849C145.866 27.5453 145.977 27.5453 146.08 27.5453C146.293 27.5453 146.467 27.5849 146.609 27.6562V28.0442C146.435 27.9333 146.254 27.87 146.04 27.87C145.969 27.87 145.898 27.87 145.866 27.9017C145.795 27.9017 145.764 27.9333 145.724 27.9729L145.613 28.0759C145.613 28.0759 145.582 28.1471 145.582 28.2184C145.582 28.2897 145.582 28.3214 145.613 28.361C145.645 28.3926 145.685 28.4322 145.724 28.4639C145.756 28.4956 145.827 28.5352 145.866 28.5352C145.938 28.5669 146.009 28.6064 146.08 28.6064C146.183 28.646 146.254 28.6777 146.364 28.7173C146.467 28.7569 146.507 28.7886 146.578 28.8599C146.649 28.8995 146.68 28.9707 146.72 29.0341C146.752 29.1054 146.752 29.1766 146.752 29.2796C146.752 29.3825 146.72 29.4934 146.68 29.5647C146.649 29.6359 146.578 29.7072 146.467 29.7785C146.364 29.8498 146.293 29.8893 146.183 29.8893C146.08 29.921 145.969 29.921 145.827 29.921C145.511 29.9606 145.329 29.921 145.155 29.8181L145.147 29.8102Z" fill="white"/>
<path d="M148.869 29.5573V29.8741H148.514V26.4609H148.869V27.9893C149.043 27.6726 149.328 27.53 149.652 27.53C149.936 27.53 150.181 27.6409 150.363 27.8468C150.537 28.0606 150.608 28.3457 150.608 28.6624C150.608 29.0505 150.505 29.3752 150.324 29.589C150.15 29.8345 149.865 29.9453 149.541 29.9453C149.257 29.9453 149.011 29.8028 148.869 29.5573ZM148.869 28.6308V28.9475C148.869 29.1217 148.94 29.3039 149.043 29.4464C149.146 29.589 149.328 29.6603 149.502 29.6603C149.715 29.6603 149.889 29.589 150.031 29.4148C150.173 29.2406 150.205 28.9871 150.205 28.702C150.205 28.4565 150.134 28.2427 150.031 28.1002C149.928 27.9577 149.747 27.8864 149.533 27.8864C149.32 27.8864 149.146 27.9577 149.004 28.1002C148.861 28.2427 148.861 28.4169 148.861 28.6308H148.869Z" fill="white"/>
<path d="M151.575 29.9139H151.219V26.5087H151.575V29.9139Z" fill="white"/>
<path d="M153.259 29.9535C152.903 29.9535 152.658 29.8506 152.445 29.6367C152.231 29.4229 152.129 29.1378 152.129 28.7815C152.129 28.3934 152.239 28.1083 152.445 27.8549C152.658 27.6411 152.943 27.5381 153.298 27.5381C153.654 27.5381 153.899 27.649 154.112 27.8549C154.326 28.0687 154.397 28.3538 154.397 28.7419C154.397 29.0982 154.294 29.415 154.081 29.6288C153.867 29.8426 153.622 29.9456 153.267 29.9456L153.259 29.9535ZM153.29 27.8628C153.045 27.8628 152.864 27.9341 152.721 28.1083C152.579 28.2825 152.508 28.4964 152.508 28.7815C152.508 29.0665 152.579 29.2804 152.721 29.4229C152.864 29.5655 153.037 29.6684 153.29 29.6684C153.543 29.6684 153.717 29.5971 153.859 29.4229C154.002 29.2804 154.033 29.0349 154.033 28.7498C154.033 28.4647 153.962 28.2509 153.859 28.0767C153.717 27.9341 153.543 27.8628 153.29 27.8628Z" fill="white"/>
<path d="M156.992 29.7005C156.992 30.5557 156.605 30.9755 155.791 30.9755C155.506 30.9755 155.261 30.9042 155.048 30.7933V30.4369C155.293 30.5795 155.546 30.6508 155.791 30.6508C156.36 30.6508 156.644 30.3657 156.644 29.7242V29.4787C156.47 29.7638 156.218 29.9064 155.862 29.9064C155.577 29.9064 155.332 29.8034 155.151 29.5896C154.977 29.3758 154.906 29.0907 154.906 28.7739C154.906 28.3859 155.008 28.0612 155.19 27.8474C155.364 27.6019 155.648 27.491 155.973 27.491C156.297 27.491 156.502 27.6336 156.644 27.8791V27.5623H157V29.6925L156.992 29.7005ZM156.605 28.8452V28.4888C156.605 28.3146 156.534 28.1325 156.431 28.0295C156.32 27.887 156.146 27.8157 155.973 27.8157C155.759 27.8157 155.585 27.887 155.443 28.0612C155.301 28.2354 155.269 28.4492 155.269 28.7739C155.269 29.0194 155.34 29.2332 155.443 29.3758C155.554 29.5183 155.728 29.6213 155.941 29.6213C156.154 29.6213 156.328 29.55 156.439 29.4075C156.581 29.2649 156.613 29.0907 156.613 28.8373L156.605 28.8452Z" fill="white"/>
<path d="M41.9688 2.57274C34.2785 -2.96272 25.8768 2.71529 24.3197 3.88732C24.1775 3.99026 23.9641 3.95858 23.8218 3.85563C16.8744 -2.89145 2.09432 -0.761206 0.181611 10.0721C-1.62835 20.1928 10.496 28.1832 18.5026 32.5862C23.2843 35.2153 23.64 38.1612 23.395 39.7213C23.3555 39.9668 23.7111 40.1093 23.8534 39.8955C25.5527 37.5198 26.019 34.2492 25.9084 31.6913C25.7661 27.0745 20.6998 27.8189 19.3562 26.8607C18.1548 26.0054 19.1744 23.8039 19.4273 23.3842C19.4589 23.3525 19.4589 23.2812 19.4273 23.2416C18.8582 22.3864 19.4589 21.6103 19.6407 21.3965C19.6723 21.3569 19.6723 21.3252 19.6407 21.2856C19.2534 20.3987 19.6723 20.1532 19.9568 19.7968C20.2414 19.4405 20.6682 19.1554 20.2414 18.696C19.8541 18.2367 19.285 17.7695 19.6012 17.1677C19.8146 16.7084 21.1266 16.4233 21.8696 15.7105C21.7984 15.6789 21.7273 15.6393 21.6561 15.6076C21.5534 15.5363 21.4427 15.4651 21.3716 15.3621C21.3005 15.2592 21.2294 15.1879 21.1582 15.077C21.2294 15.18 21.3005 15.2512 21.4032 15.3225C21.506 15.3938 21.5771 15.4651 21.6878 15.4967C21.7905 15.5284 21.9012 15.568 22.0039 15.568C22.1778 15.3542 22.3201 15.1087 22.3596 14.8236C22.573 13.1527 22.9603 11.062 24.0273 9.24855C25.0943 7.43507 26.3352 6.19176 28.7063 11.3471C30.619 15.5363 33.3458 16.9222 34.3417 17.3102C34.5551 17.3815 34.6262 17.627 34.5551 17.8091C31.7572 25.2293 33.8121 30.6302 34.6262 32.2932C34.7685 32.5783 35.1242 32.7208 35.4403 32.5387C42.0321 28.9196 45.3596 23.305 45.3596 23.305C48.5132 18.8307 50.4654 8.67838 41.9609 2.57274H41.9688Z" fill="white"/>
</g>
</svg>
