<svg width="199" height="28" viewBox="0 0 199 28" fill="none" xmlns="http://www.w3.org/2000/svg">
<g opacity="0.6" clip-path="url(#clip0_1_630)">
<path d="M182.132 14.2269C183.629 13.1898 186.449 12.4013 189.301 12.4013C190.959 12.4013 191.863 12.6605 191.863 13.3087C191.863 14.2485 190.528 14.4429 188.257 14.8426C184.823 15.4584 180.216 16.3117 180.216 20.5679C180.216 23.7871 182.197 25.5803 185.76 25.5803C188.257 25.5803 190.173 24.608 191.863 22.75V25.1914H199V14.3889C199 10.0247 195.502 7.25928 189.979 7.25928C186.869 7.25928 184.21 7.68057 182.132 8.43675V14.2269ZM187.159 19.6281C187.159 18.4506 188.333 18.1914 189.592 17.8349C190.367 17.6405 191.185 17.4136 191.863 16.9275V19.0448C191.217 20.1142 190.109 20.7408 188.655 20.7408C187.773 20.7408 187.159 20.2871 187.159 19.6281Z" fill="white"/>
<path d="M159.882 25.2022H167.245V17.5432L171.626 25.2022H180.345L173.865 15.0695L180.378 7.61576H172.498L167.245 15.0695V2.0849H159.882V25.2022Z" fill="white"/>
<path d="M136.944 25.2022H144.339V14.8534C144.92 13.4167 145.9 12.8009 147.288 12.8009C148.881 12.8009 149.85 14 149.85 15.9877V25.2022H157.277V14.7886C157.277 10.2948 154.457 7.30249 150.205 7.30249C147.676 7.30249 145.566 8.27471 144.07 10.0355V7.61576H136.933L136.944 25.2022Z" fill="white"/>
<path d="M126.631 5.33644H134.027V2.0849H126.631V5.33644Z" fill="white"/>
<path d="M126.631 25.2021H134.027V7.61572H126.631V25.2021Z" fill="white"/>
<path d="M107.331 25.2021H124.36V19.9954H116.115L124.102 12.6929V7.64813L107.977 7.61572V12.8333H115.243L107.331 20.0602V25.2021Z" fill="white"/>
<path d="M92.0457 25.2022H99.4408V15.1775C100.022 13.6759 101.163 13.0926 102.972 13.0926C104.177 13.0926 105.34 13.3195 106.115 13.6435V7.42132C105.759 7.32409 105.372 7.29169 104.984 7.29169C102.519 7.29169 100.539 8.46916 99.1825 10.4784V7.61576H92.0457V25.2022Z" fill="white"/>
<path d="M79.2362 25.5263C85.6625 25.5263 89.7744 21.983 89.7744 16.409C89.7744 10.6513 85.8455 7.29169 79.2362 7.29169C72.8099 7.29169 68.6979 10.8349 68.6979 16.409C68.6871 22.1667 72.6161 25.5263 79.2362 25.5263ZM76.1576 16.409C76.1576 13.9028 77.2555 12.4985 79.2362 12.4985C81.2168 12.4985 82.3148 13.9028 82.3148 16.409C82.3148 18.9151 81.2168 20.3195 79.2362 20.3195C77.2555 20.3195 76.1576 18.9151 76.1576 16.409Z" fill="white"/>
<path d="M49.419 25.2022H56.7818V17.5432L61.1629 25.2022H69.8927L63.4019 15.0695L69.925 7.61576H62.0456L56.7818 15.0695V2.0849H49.419V25.2022Z" fill="white"/>
<path d="M12.1529 2.05247C12.5942 0.91821 12.0345 0 10.9042 0H2.99245C1.8622 0 0.592009 0.91821 0.150672 2.05247C-0.290665 3.18673 0.269079 4.10494 1.39933 4.10494H9.32187C10.4521 4.10494 11.7223 3.18673 12.1529 2.05247ZM9.58022 22.3179C8.01939 22.3179 6.25404 23.5926 5.65124 25.1589C5.03767 26.7253 5.8127 28 7.3843 28C8.95589 28 10.7105 26.7253 11.3133 25.1589C11.9161 23.5926 11.141 22.3179 9.58022 22.3179ZM33.5524 5.61728H7.17977C6.04952 5.61728 4.77933 6.53549 4.33799 7.66975C3.89666 8.80401 4.4564 9.72222 5.58665 9.72222H31.9592C33.0895 9.72222 34.3597 8.80401 34.801 7.66975C35.2316 6.53549 34.6719 5.61728 33.5524 5.61728ZM30.9797 11.2346H9.042C7.91175 11.2346 6.64156 12.1528 6.20022 13.287C5.75888 14.4213 6.31863 15.3395 7.44888 15.3395H29.3866C30.5168 15.3395 31.787 14.4213 32.2283 13.287C32.6589 12.1528 32.1099 11.2346 30.9797 11.2346ZM27.2875 16.841H9.41875C8.2885 16.841 7.01831 17.7593 6.57697 18.8935C6.13563 20.0278 6.69538 20.946 7.82563 20.946H25.7052C26.8354 20.946 28.1056 20.0278 28.547 18.8935C28.9775 17.7593 28.4178 16.841 27.2875 16.841ZM22.7342 25.0941C22.1099 26.6929 20.3122 27.9892 18.7191 27.9892C17.126 27.9892 16.3294 26.6929 16.9538 25.0941C17.5781 23.4954 19.3757 22.1991 20.9689 22.1991C22.5728 22.1991 23.3585 23.4954 22.7342 25.0941Z" fill="white"/>
</g>
<defs>
<clipPath id="clip0_1_630">
<rect width="199" height="28" fill="white"/>
</clipPath>
</defs>
</svg>
