<svg width="155" height="36" viewBox="0 0 155 36" fill="none" xmlns="http://www.w3.org/2000/svg">
<g opacity="0.6">
<path d="M0.511658 36V29.5034C0.534671 30.2648 0.603315 30.7601 0.808064 31.171C1.079 31.7148 1.51132 32.1569 2.04306 32.434C2.64757 32.7489 3.43892 32.7489 5.02162 32.7489H13.0757C13.867 32.7489 14.2627 32.7489 14.5649 32.9064C14.8308 33.0449 15.047 33.266 15.1824 33.5379C15.3364 33.847 15.3364 34.2516 15.3364 35.0608V36H0.511658Z" fill="white"/>
<path d="M35.2833 29.5017V36H20.4585V35.0608C20.4585 34.2516 20.4585 33.847 20.6125 33.5379C20.748 33.266 20.9642 33.0449 21.23 32.9064C21.5323 32.7489 21.928 32.7489 22.7193 32.7489H30.7733C32.356 32.7489 33.1474 32.7489 33.7519 32.434C34.2836 32.1569 34.716 31.7148 34.9869 31.171C35.1918 30.7598 35.2604 30.264 35.2833 29.5017Z" fill="white"/>
<path d="M5.44551 24.0794H30.3494V27.6917H22.3307C20.748 27.6917 19.9567 27.6917 19.3522 28.0067C18.8204 28.2837 18.3881 28.7258 18.1172 29.2696C18.0123 29.4801 17.9431 29.7128 17.8975 29.9922C17.8519 29.7128 17.7827 29.4801 17.6778 29.2696C17.4068 28.7258 16.9745 28.2837 16.4428 28.0067C15.8383 27.6917 15.0469 27.6917 13.4642 27.6917H5.44551V24.0794Z" fill="white"/>
<path d="M0.500003 0.416992H5.44546H13.4642C15.0469 0.416992 15.8382 0.416992 16.4427 0.731966C16.9745 1.00902 17.4068 1.45111 17.6777 1.99487C17.7826 2.20542 17.8518 2.43813 17.8974 2.71744C17.943 2.43813 18.0122 2.20542 18.1171 1.99487C18.3881 1.45111 18.8204 1.00902 19.3521 0.731966C19.9566 0.416992 20.748 0.416992 22.3307 0.416992H30.3494H35.2949L35.2949 24.0952H30.3494L30.3494 5.47421H22.3307C20.748 5.47421 19.9566 5.47421 19.3521 5.78919C18.8204 6.06624 18.3881 6.50833 18.1171 7.05209C18.0122 7.26264 17.943 7.49535 17.8974 7.77466C17.8518 7.49535 17.7826 7.26264 17.6777 7.05209C17.4068 6.50833 16.9745 6.06624 16.4427 5.78919C15.8382 5.47421 15.0469 5.47421 13.4642 5.47421H5.44546L5.44546 24.0952H0.5L0.500003 0.416992Z" fill="white"/>
<path d="M48.6823 19.8535H53.0329V0.389285H48.6823V19.8535Z" fill="white"/>
<path d="M75.283 10.1214C75.283 7.25738 74.3313 4.86606 72.4007 2.91964C70.4701 0.973213 68.1317 0 65.3853 0C62.639 0 60.3005 0.973213 58.3699 2.91964C56.4393 4.86606 55.4876 7.25738 55.4876 10.1214C55.4876 12.9854 56.4393 15.3768 58.3699 17.3232C60.3005 19.2696 62.639 20.2428 65.3853 20.2428C66.9352 20.2428 68.4308 19.8813 69.8447 19.1862L71.8841 21.3829L75.0111 18.5466L73.1077 16.489C74.5489 14.6538 75.283 12.5405 75.283 10.1214ZM65.3853 15.9051C63.8082 15.9051 62.4758 15.3768 61.4153 14.2923C60.3549 13.2079 59.8382 11.8176 59.8382 10.1214C59.8382 8.42524 60.3549 7.03493 61.4153 5.9505C62.4758 4.86606 63.8082 4.33775 65.3853 4.33775C66.9624 4.33775 68.2676 4.86606 69.3281 5.9505C70.3886 7.03493 70.9324 8.42524 70.9324 10.1214C70.9324 11.2615 70.6605 12.2903 70.1438 13.2635L67.8108 10.683L64.6837 13.5193L66.7177 15.766C66.2283 15.8495 65.7932 15.9051 65.3853 15.9051Z" fill="white"/>
<path d="M75.4171 0.389285V4.67142H80.3116V19.8535H84.6622V4.67142H89.5567V0.389285H75.4171Z" fill="white"/>
<path d="M91.4612 19.8535H95.8118V0.389285H91.4612V19.8535Z" fill="white"/>
<path d="M99.0823 0.389285V19.8535H106.696C109.333 19.8535 111.509 18.9359 113.276 17.0729C115.044 15.2099 115.941 12.8742 115.941 10.1214C115.941 7.36861 115.044 5.0607 113.276 3.1977C111.509 1.33469 109.333 0.389285 106.696 0.389285H99.0823ZM103.433 15.5714V4.67142H106.696C108.191 4.67142 109.415 5.17193 110.34 6.17295C111.291 7.14616 111.754 8.48085 111.754 10.1214C111.754 11.762 111.291 13.0967 110.34 14.0977C109.415 15.0709 108.191 15.5714 106.696 15.5714H103.433Z" fill="white"/>
<path d="M134.485 17.3232C136.415 15.3768 137.367 12.9854 137.367 10.1214C137.367 7.25738 136.415 4.86606 134.485 2.91964C132.554 0.973213 130.216 0 127.469 0C124.723 0 122.384 0.973213 120.454 2.91964C118.523 4.86606 117.571 7.25738 117.571 10.1214C117.571 12.9854 118.523 15.3768 120.454 17.3232C122.384 19.2696 124.723 20.2428 127.469 20.2428C130.216 20.2428 132.554 19.2696 134.485 17.3232ZM123.499 14.2923C122.439 13.2079 121.922 11.8176 121.922 10.1214C121.922 8.42524 122.439 7.03493 123.499 5.9505C124.56 4.86606 125.892 4.33775 127.469 4.33775C129.046 4.33775 130.352 4.86606 131.412 5.9505C132.472 7.03493 133.016 8.42524 133.016 10.1214C133.016 11.8176 132.472 13.2079 131.412 14.2923C130.352 15.3768 129.046 15.9051 127.469 15.9051C125.892 15.9051 124.56 15.3768 123.499 14.2923Z" fill="white"/>
<path d="M154.5 19.8535L150.448 12.7074C152.542 11.5951 153.956 9.42626 153.956 7.06274C153.956 5.19973 153.331 3.6426 152.053 2.33571C150.775 1.02882 149.252 0.389285 147.43 0.389285H139.817V19.8535H144.167V13.4581H146.234L149.823 19.8535H154.5ZM147.43 4.56019C148.627 4.56019 149.605 5.64463 149.605 7.06274C149.605 8.48085 148.627 9.56529 147.43 9.56529H144.167V4.56019H147.43Z" fill="white"/>
<path d="M49.8782 29.6266C49.8782 29.1304 50.3296 28.8535 50.8825 28.8535C51.4805 28.8535 51.8867 29.0958 52.0898 29.5919L52.9135 29.1189C52.5524 28.3689 51.7964 27.9189 50.8825 27.9189C50.307 27.9189 49.8331 28.0804 49.4495 28.4035C49.0771 28.7266 48.8853 29.1419 48.8853 29.6381C48.8853 30.8612 50.0362 31.1612 50.9276 31.4035C51.5482 31.5535 52.0446 31.8073 52.0446 32.2573C52.0446 32.7996 51.5707 33.0419 50.9276 33.0419C50.2393 33.0419 49.709 32.6958 49.5284 32.1419L48.6822 32.6381C49.0094 33.4573 49.8331 33.9881 50.9276 33.9881C51.5482 33.9881 52.0446 33.8265 52.4396 33.515C52.8345 33.2035 53.0376 32.7765 53.0376 32.2573C53.0489 31.0227 51.8754 30.6881 50.9953 30.4919C50.3747 30.3189 49.8782 30.0766 49.8782 29.6266Z" fill="white"/>
<path d="M57.3141 27.9189C56.3776 27.9189 55.6667 28.2996 55.1815 29.0612V28.0689H54.1999V36H55.1815V32.8458C55.6667 33.6073 56.3776 33.9881 57.3141 33.9881C58.1039 33.9881 58.7809 33.6996 59.3338 33.1112C59.8867 32.5227 60.1688 31.7958 60.1688 30.9535C60.1688 30.1112 59.8867 29.3958 59.3338 28.8073C58.7809 28.2189 58.1039 27.9189 57.3141 27.9189ZM57.19 33.0188C56.6145 33.0188 56.1406 32.8227 55.757 32.4304C55.3733 32.0265 55.1815 31.5419 55.1815 30.9535C55.1815 30.365 55.3733 29.8804 55.757 29.4881C56.1406 29.0842 56.6145 28.8881 57.19 28.8881C57.7541 28.8881 58.228 29.0842 58.6117 29.4881C58.9953 29.8804 59.1871 30.365 59.1871 30.9535C59.1871 31.5419 58.9953 32.0265 58.6117 32.4304C58.228 32.8227 57.7541 33.0188 57.19 33.0188Z" fill="white"/>
<path d="M66.7562 31.415C66.7788 31.265 66.79 31.115 66.79 30.965C66.79 30.1227 66.5305 29.4073 66.0002 28.8189C65.4812 28.2189 64.8042 27.9189 63.9805 27.9189C63.1116 27.9189 62.4008 28.2073 61.8479 28.7843C61.295 29.3612 61.0242 30.0881 61.0242 30.9535C61.0242 31.8304 61.3063 32.5573 61.8592 33.1342C62.4234 33.6996 63.1568 33.9881 64.0482 33.9881C65.1539 33.9881 65.9776 33.5496 66.5305 32.6842L65.6955 32.1996C65.357 32.765 64.8154 33.0419 64.0707 33.0419C62.9988 33.0419 62.2203 32.4419 62.0284 31.415H66.7562ZM63.9805 28.865C64.8831 28.865 65.6278 29.4419 65.7971 30.5381H62.0284C62.1977 29.5227 62.9311 28.865 63.9805 28.865Z" fill="white"/>
<path d="M70.559 33.9881C71.6535 33.9881 72.6126 33.3996 73.0978 32.4881L72.2628 31.9919C71.9469 32.6035 71.315 32.9958 70.559 32.9958C69.9949 32.9958 69.521 32.7996 69.1373 32.4073C68.765 32.015 68.5732 31.5304 68.5732 30.9535C68.5732 30.365 68.765 29.8804 69.1373 29.4881C69.521 29.0958 69.9949 28.8996 70.559 28.8996C71.315 28.8996 71.9469 29.3035 72.229 29.915L73.0527 29.4304C72.6126 28.5073 71.6761 27.9189 70.559 27.9189C69.7128 27.9189 69.0019 28.2073 68.4378 28.7958C67.8736 29.3727 67.5915 30.0881 67.5915 30.9535C67.5915 31.8189 67.8736 32.5342 68.4378 33.1227C69.0019 33.6996 69.7128 33.9881 70.559 33.9881Z" fill="white"/>
<path d="M74.5635 27.0189C74.9246 27.0189 75.218 26.7189 75.218 26.3496C75.218 25.9804 74.9246 25.6689 74.5635 25.6689C74.1912 25.6689 73.8978 25.9804 73.8978 26.3496C73.8978 26.7189 74.1912 27.0189 74.5635 27.0189ZM75.0487 33.8381V28.0689H74.067V33.8381H75.0487Z" fill="white"/>
<path d="M81.2176 29.0612C80.7325 28.2996 80.0216 27.9189 79.0851 27.9189C78.2952 27.9189 77.6182 28.2189 77.0653 28.8073C76.5125 29.3958 76.2304 30.1112 76.2304 30.9535C76.2304 31.7958 76.5125 32.5227 77.0653 33.1112C77.6182 33.6996 78.2952 33.9881 79.0851 33.9881C80.0216 33.9881 80.7325 33.6073 81.2176 32.8458V33.8381H82.1993V28.0689H81.2176V29.0612ZM79.2092 33.0188C78.645 33.0188 78.1711 32.8227 77.7875 32.4304C77.4038 32.0265 77.212 31.5419 77.212 30.9535C77.212 30.365 77.4038 29.8804 77.7875 29.4881C78.1711 29.0842 78.645 28.8881 79.2092 28.8881C79.7846 28.8881 80.2586 29.0842 80.6422 29.4881C81.0258 29.8804 81.2176 30.365 81.2176 30.9535C81.2176 31.5419 81.0258 32.0265 80.6422 32.4304C80.2586 32.8227 79.7846 33.0188 79.2092 33.0188Z" fill="white"/>
<path d="M84.6683 33.8381V25.415H83.6866V33.8381H84.6683Z" fill="white"/>
<path d="M89.833 29.6266C89.833 29.1304 90.2843 28.8535 90.8372 28.8535C91.4352 28.8535 91.8414 29.0958 92.0445 29.5919L92.8682 29.1189C92.5071 28.3689 91.7511 27.9189 90.8372 27.9189C90.2617 27.9189 89.7878 28.0804 89.4042 28.4035C89.0318 28.7266 88.84 29.1419 88.84 29.6381C88.84 30.8612 89.9909 31.1612 90.8823 31.4035C91.5029 31.5535 91.9994 31.8073 91.9994 32.2573C91.9994 32.7996 91.5255 33.0419 90.8823 33.0419C90.194 33.0419 89.6637 32.6958 89.4832 32.1419L88.6369 32.6381C88.9641 33.4573 89.7878 33.9881 90.8823 33.9881C91.5029 33.9881 91.9994 33.8265 92.3943 33.515C92.7892 33.2035 92.9923 32.7765 92.9923 32.2573C93.0036 31.0227 91.8301 30.6881 90.95 30.4919C90.3294 30.3189 89.833 30.0766 89.833 29.6266Z" fill="white"/>
<path d="M96.6519 33.9881C97.7464 33.9881 98.7055 33.3996 99.1907 32.4881L98.3557 31.9919C98.0398 32.6035 97.4079 32.9958 96.6519 32.9958C96.0878 32.9958 95.6139 32.7996 95.2302 32.4073C94.8579 32.015 94.6661 31.5304 94.6661 30.9535C94.6661 30.365 94.8579 29.8804 95.2302 29.4881C95.6139 29.0958 96.0878 28.8996 96.6519 28.8996C97.4079 28.8996 98.0398 29.3035 98.3219 29.915L99.1456 29.4304C98.7055 28.5073 97.769 27.9189 96.6519 27.9189C95.8057 27.9189 95.0948 28.2073 94.5307 28.7958C93.9665 29.3727 93.6844 30.0881 93.6844 30.9535C93.6844 31.8189 93.9665 32.5342 94.5307 33.1227C95.0948 33.6996 95.8057 33.9881 96.6519 33.9881Z" fill="white"/>
<path d="M102.97 27.9189C102.146 27.9189 101.537 28.2419 101.142 28.8996V25.7612H100.16V33.8381H101.142V30.7804C101.142 29.4881 101.796 28.8766 102.778 28.8766C103.647 28.8766 104.177 29.4189 104.177 30.3535V33.8381H105.158V30.2958C105.158 28.8304 104.29 27.9189 102.97 27.9189Z" fill="white"/>
<path d="M111.29 33.1112C111.866 32.5227 112.159 31.8073 112.159 30.9535C112.159 30.0996 111.866 29.3842 111.29 28.7958C110.715 28.2073 110.004 27.9189 109.18 27.9189C108.357 27.9189 107.646 28.2073 107.07 28.7958C106.495 29.3842 106.213 30.0996 106.213 30.9535C106.213 31.8073 106.495 32.5227 107.07 33.1112C107.646 33.6996 108.357 33.9881 109.18 33.9881C110.004 33.9881 110.715 33.6996 111.29 33.1112ZM109.18 33.0073C108.628 33.0073 108.154 32.8112 107.77 32.4188C107.386 32.0265 107.195 31.5419 107.195 30.9535C107.195 30.365 107.386 29.8804 107.77 29.4881C108.154 29.0958 108.628 28.8996 109.18 28.8996C109.745 28.8996 110.219 29.0958 110.602 29.4881C110.986 29.8804 111.178 30.365 111.178 30.9535C111.178 31.5419 110.986 32.0265 110.602 32.4188C110.219 32.8112 109.745 33.0073 109.18 33.0073Z" fill="white"/>
<path d="M118.078 33.1112C118.654 32.5227 118.947 31.8073 118.947 30.9535C118.947 30.0996 118.654 29.3842 118.078 28.7958C117.503 28.2073 116.792 27.9189 115.968 27.9189C115.144 27.9189 114.434 28.2073 113.858 28.7958C113.283 29.3842 113.001 30.0996 113.001 30.9535C113.001 31.8073 113.283 32.5227 113.858 33.1112C114.434 33.6996 115.144 33.9881 115.968 33.9881C116.792 33.9881 117.503 33.6996 118.078 33.1112ZM115.968 33.0073C115.415 33.0073 114.941 32.8112 114.558 32.4188C114.174 32.0265 113.982 31.5419 113.982 30.9535C113.982 30.365 114.174 29.8804 114.558 29.4881C114.941 29.0958 115.415 28.8996 115.968 28.8996C116.532 28.8996 117.006 29.0958 117.39 29.4881C117.774 29.8804 117.965 30.365 117.965 30.9535C117.965 31.5419 117.774 32.0265 117.39 32.4188C117.006 32.8112 116.532 33.0073 115.968 33.0073Z" fill="white"/>
<path d="M121.086 33.8381V25.415H120.104V33.8381H121.086Z" fill="white"/>
</g>
</svg>
