<svg width="175" height="160" viewBox="0 0 175 160" fill="none" xmlns="http://www.w3.org/2000/svg">
<path d="M9.15527e-05 71.6669C9.15527e-05 67.985 2.97637 65.0002 6.64781 65.0002H23.2671C26.9385 65.0002 29.9148 67.985 29.9148 71.6669V88.3336C29.9148 92.0155 26.9385 95.0002 23.2671 95.0002H6.64781C2.97637 95.0002 9.15527e-05 92.0155 9.15527e-05 88.3336V71.6669Z" fill="#4489F7"/>
<path fill-rule="evenodd" clip-rule="evenodd" d="M9.85059 88.1429C14.2597 87.5714 16.9329 86.2328 17.8895 85.518C18.127 85.3982 18.3597 85.2617 18.586 85.1082C21.3833 83.2115 22.147 79.4431 20.2917 76.6914C18.4364 73.9396 14.6647 73.2465 11.8674 75.1432C11.7691 75.2099 11.6733 75.2789 11.5801 75.35C11.5095 75.3871 11.4411 75.4299 11.3752 75.4786C8.61335 77.5202 6.64048 80.6589 5.86785 82.2233C4.99898 78.3316 6.55139 74.101 10.0899 71.7017C14.6869 68.5846 20.8951 69.7385 23.9563 74.2789C27.0175 78.8193 25.7725 85.0269 21.1756 88.144C17.6315 90.5471 13.1296 90.4117 9.85059 88.1429Z" fill="white"/>
<path fill-rule="evenodd" clip-rule="evenodd" d="M12.1964 77.1063C12.2613 77.0568 12.328 77.0088 12.3964 76.9624C14.343 75.6424 16.9739 76.1339 18.2726 78.0601C19.5713 79.9864 19.046 82.6179 17.0994 83.9379C16.9419 84.0447 16.7799 84.1396 16.6145 84.2229C15.9437 84.7245 14.0579 85.6656 10.9409 86.0509L13.5693 83.5805L6.31717 86.2762L11.7667 80.1627L8.13355 82.0954C8.58784 81.0926 10.0079 78.7089 12.0538 77.1958C12.0997 77.1619 12.1473 77.1321 12.1964 77.1063Z" fill="white"/>
<path d="M44.5314 91.3083C41.8368 91.3083 39.7423 90.5906 38.2476 89.155C36.7741 87.7195 36.0373 85.6928 36.0373 83.075C36.0373 81.3017 36.3846 79.7395 37.0793 78.3883C37.774 77.0161 38.7529 75.9606 40.0159 75.2217C41.279 74.4617 42.742 74.0817 44.4051 74.0817C45.184 74.0817 45.9944 74.1767 46.8365 74.3667C47.6996 74.5356 48.3627 74.7361 48.8258 74.9683L47.9732 78.7367C47.4891 78.5045 46.9523 78.325 46.3628 78.1983C45.7944 78.0506 45.2576 77.9767 44.7524 77.9767C43.4472 77.9767 42.3947 78.42 41.5948 79.3067C40.8159 80.1933 40.4264 81.365 40.4264 82.8217C40.4264 84.2995 40.8264 85.4395 41.6263 86.2417C42.4473 87.0439 43.6051 87.445 45.0998 87.445C46.0892 87.445 47.1522 87.255 48.289 86.875L48.9521 90.485C47.5838 91.0339 46.1102 91.3083 44.5314 91.3083Z" fill="white"/>
<path d="M59.4856 91.3083C57.8437 91.3083 56.3911 90.9495 55.1281 90.2317C53.886 89.5139 52.9177 88.5111 52.223 87.2233C51.5283 85.9145 51.181 84.405 51.181 82.695C51.181 80.985 51.5178 79.4861 52.1914 78.1983C52.8861 76.8895 53.8545 75.8761 55.0965 75.1583C56.3595 74.4406 57.8121 74.0817 59.4541 74.0817C61.096 74.0817 62.538 74.4406 63.7801 75.1583C65.0431 75.855 66.0115 76.8472 66.6851 78.135C67.3798 79.4228 67.7271 80.9111 67.7271 82.6C67.7271 84.31 67.3798 85.83 66.6851 87.16C66.0115 88.4689 65.0431 89.4928 63.7801 90.2317C62.538 90.9495 61.1066 91.3083 59.4856 91.3083ZM59.4541 87.445C60.5908 87.445 61.496 87.0122 62.1697 86.1467C62.8643 85.26 63.2117 84.0989 63.2117 82.6633C63.2117 81.2278 62.8643 80.0878 62.1697 79.2433C61.496 78.3778 60.5908 77.945 59.4541 77.945C58.3173 77.945 57.4016 78.3778 56.7069 79.2433C56.0333 80.0878 55.6964 81.2278 55.6964 82.6633C55.6964 84.0989 56.0333 85.26 56.7069 86.1467C57.4016 87.0122 58.3173 87.445 59.4541 87.445Z" fill="white"/>
<path d="M71.0274 74.525H75.385V77.0583C76.6691 75.0739 78.4058 74.0817 80.5951 74.0817C81.8371 74.0817 82.8897 74.3772 83.7528 74.9683C84.6369 75.5383 85.279 76.3617 85.679 77.4383C86.4157 76.2772 87.2367 75.4328 88.1419 74.905C89.0682 74.3561 90.1207 74.0817 91.2996 74.0817C93.0468 74.0817 94.4046 74.6095 95.373 75.665C96.3624 76.6995 96.8571 78.1456 96.8571 80.0033V90.8333H92.4048V80.7C92.4048 79.8556 92.1943 79.2011 91.7733 78.7367C91.3733 78.2511 90.826 78.0083 90.1313 78.0083C89.2682 78.0083 88.4682 78.3672 87.7314 79.085C86.9947 79.8028 86.4473 80.7211 86.0895 81.84V90.8333H81.6371V80.7C81.6371 79.8767 81.4266 79.2222 81.0056 78.7367C80.5846 78.2511 80.0267 78.0083 79.3321 78.0083C78.5532 78.0083 77.8164 78.3039 77.1217 78.895C76.4481 79.465 75.9007 80.2778 75.4797 81.3333V90.8333H71.0274V74.525Z" fill="white"/>
<path d="M100.816 74.525H105.173V77.0583C106.457 75.0739 108.194 74.0817 110.383 74.0817C111.625 74.0817 112.678 74.3772 113.541 74.9683C114.425 75.5383 115.067 76.3617 115.467 77.4383C116.204 76.2772 117.025 75.4328 117.93 74.905C118.856 74.3561 119.909 74.0817 121.088 74.0817C122.835 74.0817 124.193 74.6095 125.161 75.665C126.151 76.6995 126.645 78.1456 126.645 80.0033V90.8333H122.193V80.7C122.193 79.8556 121.982 79.2011 121.561 78.7367C121.161 78.2511 120.614 78.0083 119.919 78.0083C119.056 78.0083 118.256 78.3672 117.52 79.085C116.783 79.8028 116.235 80.7211 115.878 81.84V90.8333H111.425V80.7C111.425 79.8767 111.215 79.2222 110.794 78.7367C110.373 78.2511 109.815 78.0083 109.12 78.0083C108.341 78.0083 107.604 78.3039 106.91 78.895C106.236 79.465 105.689 80.2778 105.268 81.3333V90.8333H100.816V74.525Z" fill="white"/>
<path d="M138.431 91.3083C135.8 91.3083 133.726 90.5483 132.21 89.0283C130.716 87.5083 129.968 85.3972 129.968 82.695C129.968 80.9428 130.295 79.4228 130.947 78.135C131.6 76.8261 132.516 75.8233 133.694 75.1267C134.894 74.43 136.294 74.0817 137.894 74.0817C140.252 74.0817 142.062 74.8417 143.325 76.3617C144.588 77.8817 145.22 80.0772 145.22 82.9483C145.22 83.4339 145.209 83.7928 145.188 84.025H134.452C134.663 85.1439 135.147 85.9989 135.905 86.59C136.663 87.16 137.684 87.445 138.968 87.445C139.747 87.445 140.557 87.35 141.399 87.16C142.241 86.9489 142.978 86.6745 143.61 86.3367L144.336 89.915C143.494 90.3583 142.557 90.6961 141.525 90.9283C140.515 91.1817 139.484 91.3083 138.431 91.3083ZM140.957 80.6683C140.894 79.7606 140.578 79.0428 140.01 78.515C139.441 77.9661 138.684 77.6917 137.736 77.6917C136.831 77.6917 136.084 77.9556 135.494 78.4833C134.926 79.0111 134.568 79.7395 134.421 80.6683H140.957Z" fill="white"/>
<path d="M154.519 91.3083C153.003 91.3083 151.824 90.9283 150.982 90.1683C150.161 89.3872 149.75 88.2895 149.75 86.875V78.3567H147.224V74.525H149.75V71.0417C151.245 70.7883 152.719 70.5983 154.171 70.4717V74.525H158.276V78.3567H154.171V86.0517C154.171 86.495 154.297 86.8328 154.55 87.065C154.824 87.2972 155.203 87.4133 155.687 87.4133C156.276 87.4133 156.95 87.2761 157.708 87.0017L158.687 90.3583C157.339 90.9917 155.95 91.3083 154.519 91.3083Z" fill="white"/>
<path d="M165.775 91.3083C164.091 91.3083 162.754 90.5906 161.765 89.155C160.775 87.7195 160.281 85.7667 160.281 83.2967C160.281 80.2989 161.039 78.0189 162.554 76.4567C164.07 74.8733 166.249 74.0817 169.091 74.0817C170.691 74.0817 172.564 74.335 174.711 74.8417V90.8333H170.48L170.575 88.2367H170.448C169.901 89.2289 169.227 89.9889 168.428 90.5167C167.649 91.0445 166.764 91.3083 165.775 91.3083ZM166.722 87.4133C167.375 87.4133 168.017 87.065 168.649 86.3683C169.28 85.6717 169.87 84.7428 170.417 83.5817V78.2617C169.743 78.0717 169.07 77.9767 168.396 77.9767C167.133 77.9767 166.175 78.4095 165.522 79.275C164.891 80.1406 164.575 81.4178 164.575 83.1067C164.575 84.4367 164.765 85.4922 165.144 86.2733C165.522 87.0333 166.049 87.4133 166.722 87.4133Z" fill="white"/>
</svg>
