<svg width="182" height="160" viewBox="0 0 182 160" fill="none" xmlns="http://www.w3.org/2000/svg">
<g opacity="0.6">
<path d="M22.293 70.6213C13.1478 68.4267 6.75677 73.6419 2.82563 67.7778C2.81386 67.7542 2.80209 67.7424 2.79032 67.7188C2.6844 67.5536 2.82563 67.3176 3.01394 67.3648C11.1116 69.2999 12.4299 68.0963 15.8314 68.5093C18.9739 68.8869 22.293 70.6213 22.293 70.6213Z" fill="white"/>
<path d="M23.9056 72.0964C15.8549 70.9047 10.1465 76.934 5.83873 72.297C5.82696 72.2852 5.81519 72.2616 5.79166 72.2498C5.67397 72.12 5.75635 71.884 5.93289 71.8958C13.2891 72.4385 15.0192 71.1406 18.0443 71.0109C20.8688 70.8929 23.9056 72.0964 23.9056 72.0964Z" fill="white"/>
<path d="M25.4002 73.9959C18.3735 73.0402 15.3605 79.3644 9.66389 75.4944C9.65212 75.4826 9.64035 75.4708 9.61682 75.4472C9.49913 75.341 9.53443 75.0342 9.6992 75.0342C15.9255 75.046 17.5497 73.5947 20.1745 73.2762C23.7291 72.8514 25.4002 73.9959 25.4002 73.9959Z" fill="white"/>
<path d="M28.5664 76.0846C24.8942 76.474 25.471 79.4238 21.4458 78.763C20.9161 78.6804 21.0338 78.3029 21.2692 78.2321C24.6472 77.2645 24.6472 76.6156 25.8595 76.1318C27.0129 75.6953 28.5664 76.0846 28.5664 76.0846Z" fill="white"/>
<path d="M26.9069 75.1755C21.6105 75.2817 20.257 79.0928 15.7962 77.8539C15.1135 77.6651 15.3489 77.146 15.7138 77.0988C20.822 76.2847 21.069 75.5295 22.9639 75.0811C24.7412 74.6564 26.9069 75.1755 26.9069 75.1755Z" fill="white"/>
<path d="M23.8818 70.6098C23.8465 70.6688 23.7641 70.6806 23.7053 70.657C22.6107 70.0317 21.5869 69.3001 20.4099 68.4978C19.3035 67.7544 16.9259 66.7397 11.9826 66.9757C9.62858 67.0937 6.05055 67.5775 2.3548 65.0407C1.46028 64.4389 0.553996 63.4124 0.0831996 62.4567C0.0361232 62.3741 0.0125853 62.2679 0.000816223 62.1617C-0.0109529 62.0555 0.106737 61.9729 0.212691 62.0083C9.35789 65.6896 11.9708 64.2501 17.7263 65.5834C20.0919 66.138 23.0226 69.5833 23.8703 70.4446C23.9172 70.48 23.9172 70.5508 23.8818 70.6098Z" fill="white"/>
<path d="M31.8385 90.7862C31.7324 91.1163 31.7558 91.5058 31.5442 91.789C31.2851 92.1667 30.6497 92.202 30.3435 91.8597C30.1435 91.6829 30.1435 91.3998 30.0728 91.1754C29.6139 89.1579 29.1666 87.14 28.7193 85.1106C28.6724 84.9692 28.7193 84.8747 28.8605 84.8158C29.0843 84.7567 29.1078 85.0045 29.1782 85.1463C29.6843 86.5268 30.1551 87.9188 30.6731 89.2993C30.8378 89.7715 31.3912 89.6178 31.7558 89.7361C32.1443 89.9836 31.9089 90.4439 31.8385 90.7862Z" fill="white"/>
<path d="M32.4386 85.2168C32.4859 85.3466 32.4151 85.4999 32.274 85.5234C32.1916 85.5353 32.1209 85.5234 32.0974 85.4054C31.7559 84.7211 31.4617 84.0015 31.1086 83.3172C30.6498 82.9276 30.1671 82.5265 29.8848 81.972C29.3786 81.0753 29.4256 79.9072 29.9906 79.0458C30.0375 78.9868 30.0729 78.916 30.1202 78.857C30.2025 78.7391 30.379 78.7627 30.426 78.9042C30.4613 79.0104 30.4848 79.1166 30.5321 79.211C31.1675 81.205 31.7797 83.2227 32.4386 85.2168Z" fill="white"/>
<path d="M32.5329 75.7184C32.5095 76.2493 32.3094 76.7449 32.1799 77.2523C32.168 77.2876 32.1564 77.3112 32.121 77.323C32.0387 77.3585 31.9564 77.2994 31.9564 77.2169C31.9679 76.5207 32.2152 75.8364 32.0387 75.152C31.7798 74.2199 31.1441 73.4058 31.0972 72.4147C31.0734 71.8955 31.203 71.3881 31.3091 70.8808C30.9322 70.0903 30.7557 69.1817 30.9557 68.3204C30.991 68.2142 31.0029 68.2142 31.0618 68.2968C31.4268 68.8278 31.9091 69.3587 31.9091 70.0548C31.8622 71.046 31.3206 72.0371 31.6856 73.0282C31.9798 73.9131 32.6152 74.7391 32.5329 75.7184Z" fill="white"/>
<path d="M35.6401 72.2969C35.6166 73.5948 34.4867 74.6331 34.6162 75.9546C34.6162 76.4619 34.7455 76.9811 34.6867 77.4885C34.6044 77.9368 34.0982 78.0076 33.7336 78.1138C33.5217 78.2082 33.2863 77.9604 33.3451 77.748C33.3451 76.2142 33.3451 74.6685 33.3451 73.1346C33.3686 72.4975 33.5217 71.8249 33.9571 71.3412C34.2278 71.0226 34.5101 70.704 34.8044 70.3854C34.8632 70.3146 34.8986 70.2321 34.887 70.1495C34.8632 69.8663 34.8044 69.6185 34.934 69.2881C35.134 68.8752 35.3931 68.6274 35.6636 68.356C35.7108 68.3088 35.7813 68.3324 35.7932 68.3914C35.9816 69.2291 35.7932 70.1377 35.4047 70.8928C35.4989 71.3412 35.6401 71.8131 35.6401 72.2969Z" fill="white"/>
<path d="M50.5055 67.5538C48.9048 68.0021 48.1632 68.5449 47.5278 69.0522C47.5278 69.0522 48.9755 68.5449 51.0586 68.3207C56.9672 67.6718 57.3084 69.8782 63.9232 67.3178C64.1467 67.2824 64.2055 67.4594 64.1467 67.5538C63.264 69.0876 62.2871 70.7867 58.5914 70.9401C54.5661 71.1053 52.4712 69.4888 48.6928 69.9726C46.2802 70.2793 45.0325 71.0345 44.338 71.4946C52.577 69.9135 51.8943 73.5477 59.9683 71.6126C60.0626 71.589 60.1687 71.5654 60.2629 71.5772C60.4745 71.6008 60.5571 71.8604 60.4275 72.002C60.3687 72.0728 60.2864 72.1436 60.2275 72.2144C59.1683 73.3589 58.0499 74.6096 54.2835 74.3264C49.8582 73.996 49.5759 71.2469 41.1249 73.3471C49.3167 73.3117 49.1755 76.0019 55.343 75.1995C55.5549 75.1759 55.6842 75.4355 55.5196 75.5771C55.4254 75.6597 55.3192 75.7305 55.2369 75.8013C54.3073 76.5328 52.9535 77.4295 50.4113 76.9104C45.1149 75.8013 45.7859 73.6066 38.9711 74.8102C44.2791 74.9517 43.9145 77.0166 49.3639 77.5239C49.3639 77.5239 49.3639 77.5239 49.3755 77.5239C49.6697 77.5593 49.7524 77.9487 49.5051 78.1139C49.3167 78.2437 49.1048 78.3381 48.9048 78.4207C44.9267 79.9663 43.0787 74.9635 38.1942 76.0845C41.6899 76.3912 41.4073 77.5711 44.5618 78.4325C44.9029 78.5269 44.8679 78.987 44.491 79.0224C40.7484 79.4 41.078 76.875 38.7827 76.7806C38.1708 76.757 37.6058 77.0874 37.2997 77.6301C36.3935 79.2112 36.7581 80.7097 36.6993 81.5238C36.9112 82.3733 37.2292 83.1994 37.2408 84.0958C37.2527 84.7213 37.1939 85.3703 36.9935 85.972C36.617 87.2226 36.2404 88.4736 35.852 89.7361C35.7697 89.9955 35.7812 90.2786 35.8755 90.5265C36.0166 90.9041 36.1581 91.2699 36.217 91.671C36.3581 92.3434 36.2639 93.0396 36.0285 93.6886C35.5343 94.9039 35.0397 96.1191 34.5455 97.3463C34.4513 97.5703 34.3809 97.8066 34.2159 97.9953C33.9689 98.0425 33.9924 97.724 34.0159 97.5703C34.4985 93.0277 34.9574 88.4851 35.4282 83.9425L35.805 82.8571C35.0635 83.4941 34.7339 84.379 34.2513 85.1697C34.1924 85.3584 33.9101 85.3937 33.8512 85.1816C33.8982 84.3909 34.004 83.6005 34.0278 82.8098C34.0982 82.0076 34.0866 81.1934 34.3574 80.4265C34.6632 79.6478 35.2516 79.0224 35.7108 78.3499C36.4639 77.3823 37.0289 76.285 37.4173 75.1287C37.6527 74.4208 38.1473 73.7954 38.7827 73.4061C40.9838 72.0138 42.2665 70.8103 44.3499 69.2292C46.2683 67.7779 47.7513 66.6452 48.599 66.3031C52.4712 64.7102 60.251 66.421 66.9128 62.079C67.0774 61.9846 67.2893 62.1734 67.16 62.4447C66.5362 64.0258 65.7947 65.0406 64.029 65.9137C58.9445 68.4269 53.1066 66.8222 50.5055 67.5538Z" fill="white"/>
<path d="M35.0635 70.2794C35.0635 70.2794 34.6278 69.5124 33.5685 69.418C32.7682 69.3472 32.4035 69.6186 32.4035 69.6186C32.4035 69.6186 33.3685 69.3355 34.1219 70.008C34.875 70.6805 34.4631 71.2587 34.4631 71.2587C34.4631 71.2587 35.287 70.7749 35.0635 70.2794Z" fill="white"/>
<path d="M35.0163 70.1731C35.0163 70.1731 34.4632 69.5832 33.3333 69.536C33.3333 69.536 34.004 69.7012 34.0867 70.0669C34.2278 70.7631 33.6159 71.6952 33.4982 72.1436C33.404 72.5447 35.0163 70.1731 35.0163 70.1731Z" fill="white"/>
<path d="M134.424 85.8211C132.892 86.0747 131.341 86.1923 129.789 86.1727C126.878 86.1727 123.756 84.2497 123.756 78.8802V75.7376C123.756 70.0442 127.029 68.425 129.996 68.425C131.478 68.4117 132.959 68.5214 134.424 68.7528C134.631 68.7768 134.821 68.8688 134.821 69.1047V70.2761C134.821 70.44 134.73 70.512 134.519 70.512H134.428C133.054 70.3961 131.982 70.3481 129.999 70.3481C127.835 70.3481 125.877 71.5195 125.877 75.7376V78.8802C125.877 82.7506 127.625 84.2738 129.793 84.2738C131.211 84.2738 132.176 84.1819 132.724 84.1336V77.4289C132.719 77.3697 132.726 77.3101 132.745 77.2538C132.764 77.1975 132.794 77.1457 132.833 77.1015C132.873 77.0573 132.921 77.0217 132.975 76.9969C133.028 76.9721 133.086 76.9585 133.145 76.9571H134.404C134.524 76.9632 134.637 77.0158 134.719 77.1037C134.801 77.1916 134.846 77.3082 134.845 77.4289V85.3052C134.849 85.428 134.808 85.5479 134.731 85.6427C134.653 85.7375 134.544 85.8008 134.424 85.8211Z" fill="white"/>
<path d="M143.527 74.7539C142.443 74.7106 141.357 74.7897 140.29 74.9897V85.5409C140.296 85.6553 140.258 85.7675 140.184 85.8543C140.11 85.9414 140.006 85.9967 139.893 86.0086H138.682C138.564 86.0025 138.454 85.9498 138.375 85.8623C138.296 85.7746 138.255 85.6592 138.261 85.5409V74.1461C138.267 74.0284 138.31 73.9155 138.381 73.8221C138.453 73.7287 138.55 73.6591 138.662 73.6224C139.988 73.0347 141.597 72.9667 143.527 72.9667C143.833 72.9667 144.02 72.9907 144.02 73.3185V74.394C144.02 74.6379 143.972 74.7539 143.527 74.7539Z" fill="white"/>
<path d="M151.256 86.1724C147.832 86.1724 146.093 83.8977 146.093 80.4511V78.6679C146.093 75.2215 147.84 72.9505 151.256 72.9505C154.671 72.9505 156.419 75.2215 156.419 78.6679V80.4511C156.419 83.8977 154.659 86.1724 151.256 86.1724ZM154.401 78.6679C154.401 76.269 153.444 74.7537 151.256 74.7537C149.067 74.7537 148.134 76.257 148.134 78.6679V80.4511C148.134 82.8499 149.067 84.3692 151.256 84.3692C153.444 84.3692 154.401 82.8659 154.401 80.4511V78.6679Z" fill="white"/>
<path d="M164.187 86.1723H163.965C162.376 86.1723 159.167 85.2807 159.167 80.663V73.5822C159.162 73.5226 159.169 73.4625 159.189 73.4059C159.208 73.3493 159.239 73.2974 159.279 73.2534C159.32 73.2094 159.369 73.1743 159.423 73.1504C159.478 73.1265 159.537 73.1143 159.596 73.1144H160.808C160.866 73.1153 160.924 73.1284 160.978 73.1528C161.031 73.1772 161.079 73.2124 161.119 73.2563C161.158 73.3002 161.188 73.3517 161.207 73.4078C161.226 73.4639 161.233 73.5233 161.228 73.5822V80.663C161.228 83.4618 162.42 84.3692 163.977 84.3692H164.187C165.744 84.3692 166.935 83.4776 166.935 80.663V73.5822C166.931 73.5236 166.938 73.4645 166.956 73.4087C166.975 73.3529 167.005 73.3015 167.044 73.2577C167.083 73.2139 167.13 73.1786 167.183 73.154C167.236 73.1293 167.294 73.1159 167.353 73.1144H168.564C168.623 73.1153 168.681 73.1284 168.734 73.1528C168.788 73.1772 168.836 73.2124 168.875 73.2563C168.915 73.3002 168.945 73.3517 168.964 73.4078C168.983 73.4639 168.99 73.5233 168.985 73.5822V80.663C168.985 85.2807 165.768 86.1723 164.187 86.1723Z" fill="white"/>
<path d="M176.924 86.1726C176.011 86.1603 175.1 86.0749 174.2 85.9167V90.1588C174.2 90.2173 174.188 90.2748 174.166 90.3288C174.144 90.3825 174.111 90.4314 174.071 90.4728C174.029 90.514 173.981 90.5467 173.928 90.5689C173.874 90.5911 173.817 90.6027 173.759 90.6027H172.567C172.51 90.602 172.454 90.5901 172.402 90.5676C172.35 90.5448 172.303 90.5117 172.264 90.4702C172.224 90.4291 172.194 90.3799 172.174 90.3266C172.153 90.2732 172.144 90.216 172.146 90.1588V74.0222C172.146 73.7184 172.218 73.5785 172.635 73.4865C174.038 73.1439 175.476 72.9628 176.92 72.9467C180.391 72.9467 182 75.2177 182 78.7361V80.4193C182.004 84.1097 180.324 86.1726 176.924 86.1726ZM179.95 78.7401C179.95 76.2772 179.232 74.6859 176.924 74.6859C176.011 74.6913 175.1 74.7688 174.2 74.9178V84.2016C175.101 84.3504 176.011 84.4295 176.924 84.4375C179.208 84.4375 179.95 82.9381 179.95 80.4393V78.7401Z" fill="white"/>
<path d="M93.8861 85.9807C92.8375 86.1447 89.9142 86.3526 88.9016 86.3526C84.4059 86.3526 81.3556 85.2171 81.3556 79.5318V69.1685C81.3565 69.1085 81.3694 69.0493 81.3935 68.9943C81.4176 68.9394 81.452 68.8898 81.4954 68.8485C81.5385 68.8072 81.5897 68.7749 81.6453 68.7537C81.7012 68.7324 81.7607 68.7226 81.8202 68.7247H85.6172C85.6767 68.7221 85.7365 68.7315 85.7924 68.7526C85.8484 68.7736 85.8998 68.8058 85.9433 68.8472C85.9863 68.8887 86.0211 68.9385 86.0449 68.9937C86.0687 69.0489 86.0812 69.1083 86.0818 69.1685V79.5318C86.0818 81.6429 86.7809 82.3305 88.437 82.3305C89.1846 82.3281 89.9313 82.28 90.6731 82.1866V69.1685C90.6734 69.1083 90.6859 69.0489 90.7097 68.9937C90.7335 68.9385 90.7683 68.8887 90.8117 68.8472C90.8551 68.8058 90.9062 68.7736 90.9622 68.7526C91.0181 68.7315 91.0779 68.7221 91.1377 68.7247H94.9106C95.0338 68.7193 95.1537 68.7628 95.2454 68.8458C95.3367 68.9289 95.392 69.0448 95.3991 69.1685V84.1737C95.3991 85.4851 95.0019 85.8168 93.8861 85.9807Z" fill="white"/>
<path d="M102.711 86.1446H98.8902C98.768 86.1417 98.6519 86.0906 98.5664 86.0022C98.4812 85.9142 98.4333 85.7959 98.4333 85.6731V69.1685C98.4346 69.1092 98.4471 69.0506 98.4706 68.9962C98.494 68.9418 98.5281 68.8926 98.5706 68.8514C98.613 68.8102 98.6629 68.7778 98.7178 68.756C98.7725 68.7343 98.8314 68.7237 98.8902 68.7247H102.711C102.77 68.722 102.83 68.7315 102.886 68.7525C102.942 68.7736 102.994 68.8058 103.037 68.8472C103.08 68.8886 103.115 68.9384 103.139 68.9937C103.162 69.0488 103.175 69.1083 103.176 69.1685V85.6731C103.176 85.7348 103.164 85.7959 103.141 85.8531C103.118 85.9103 103.084 85.9624 103.041 86.0064C102.997 86.0501 102.946 86.0848 102.889 86.1086C102.833 86.1324 102.772 86.1446 102.711 86.1446Z" fill="white"/>
<path d="M116.218 85.9326C115.159 86.2367 114.059 86.3784 112.957 86.3524C108.672 86.3524 105.785 84.0095 105.785 78.64V76.2411C105.785 70.8555 108.672 68.5126 112.957 68.5126C114.059 68.4888 115.158 68.6303 116.218 68.9324C116.591 69.0523 116.731 69.1203 116.731 69.4482V72.4508C116.731 72.7546 116.591 72.8946 116.334 72.8946H116.262C115.179 72.7673 114.091 72.6979 113.001 72.6867C111.742 72.6867 110.618 73.2464 110.618 76.225V78.624C110.618 81.5786 111.738 82.1663 113.001 82.1663C114.091 82.154 115.179 82.0833 116.262 81.9544H116.306C116.584 81.9544 116.703 82.0944 116.703 82.3982V85.4167C116.731 85.7208 116.591 85.8166 116.218 85.9326Z" fill="white"/>
</g>
</svg>
