<svg width="278" height="160" viewBox="0 0 278 160" fill="none" xmlns="http://www.w3.org/2000/svg">
<g opacity="0.6">
<path d="M124.825 91.7575C125.049 91.1662 125.71 90.8837 126.312 91.0838C126.898 91.2787 127.496 91.4221 128.123 91.4221C128.988 91.4221 129.73 91.2621 130.347 90.9421C131.545 90.3915 131.989 88.9919 132.497 87.8779L126.481 71.8987C126.271 71.3417 126.685 70.7476 127.282 70.7476H130.863C131.353 70.7476 131.787 71.0582 131.944 71.5196L135.092 80.7895L138.24 71.5196C138.397 71.0582 138.831 70.7476 139.32 70.7476H142.673C143.272 70.7476 143.686 71.3447 143.473 71.9023L136.686 89.6869C135.895 91.7051 134.857 93.2557 133.572 94.3387C132.287 95.4462 130.594 96 128.494 96C127.256 96 126.045 95.7746 124.882 95.3821C124.17 95.1416 123.845 94.3467 124.11 93.6457L124.825 91.7575Z" fill="white"/>
<path d="M119.204 86.3642C117.896 87.6674 116.235 88.0336 114.367 88.0256C111.047 88.0113 108.287 86.3909 107.195 83.263C106.37 80.9014 106.353 78.0539 107.195 75.6947C108.301 72.5948 111.044 70.7476 114.386 70.7476C116.181 70.7476 117.858 71.0007 119.204 72.1874V71.8836C119.204 71.2562 119.715 70.7476 120.345 70.7476H124.405V88.0256H120.345C119.715 88.0256 119.204 87.517 119.204 86.8896V86.3642ZM118.5 82.6354C119.167 81.774 119.501 80.691 119.501 79.3866C119.501 77.9098 119.13 76.79 118.389 76.027C116.938 74.4822 114.159 74.4574 112.829 76.1746C111.473 77.9405 111.508 80.9189 112.866 82.6723C114.226 84.3776 117.166 84.3585 118.5 82.6354Z" fill="white"/>
<path d="M97.4512 64.1022H92.6496C91.3721 64.1022 90.7334 64.1022 90.2455 64.3499C89.8163 64.5677 89.4673 64.9152 89.2486 65.3427C89 65.8287 89 66.4649 89 67.7373V68.5325H97.0064C98.1925 68.5325 99.1068 68.8401 99.7493 69.4554C99.8327 69.5293 99.9109 69.6058 99.9839 69.685C100.495 70.2396 100.75 70.926 100.75 71.7444C100.75 71.8059 100.749 71.8668 100.747 71.9271C100.71 72.8313 100.403 73.595 99.8235 74.218C99.7493 74.301 99.67 74.3789 99.5854 74.4516C98.9935 74.9604 98.1462 75.2148 97.0435 75.2148H89V84.3905C89 85.6629 89 86.2991 89.2486 86.7851C89.4673 87.2126 89.8163 87.5601 90.2455 87.7779C90.7334 88.0256 91.3721 88.0256 92.6496 88.0256H93.9527V79.4604H97.5624C98.798 79.4604 99.9223 79.2881 100.935 78.9436C101.973 78.599 102.863 78.0944 103.604 77.4299C104.346 76.7407 104.914 75.8916 105.309 74.8825C105.729 73.8488 105.939 72.6674 105.939 71.3383C105.939 70.2307 105.742 69.2339 105.346 68.3479C104.951 67.4618 104.383 66.7112 103.641 66.0958C102.9 65.4559 101.998 64.9637 100.935 64.6191C99.8976 64.2745 98.7362 64.1022 97.4512 64.1022Z" fill="white"/>
<g opacity="0.6">
<path d="M171.895 71.9334C171.655 71.3714 172.069 70.7476 172.682 70.7476H176.311C176.784 70.7476 177.208 71.0379 177.377 71.4775L180.543 79.7189L183.675 71.4814C183.842 71.0397 184.267 70.7476 184.741 70.7476H188.14C188.755 70.7476 189.169 71.3739 188.926 71.9362L182.212 87.4861C182.031 87.903 181.62 88.1732 181.164 88.1732H179.592C179.135 88.1732 178.722 87.9013 178.543 87.4823L171.895 71.9334Z" fill="white"/>
<path d="M162.777 83.9276C163.419 83.9276 163.975 83.8045 164.445 83.5584C164.939 83.3123 165.347 82.9923 165.668 82.5985C166.014 82.1801 166.261 81.7002 166.409 81.1587C166.582 80.5926 166.669 80.0019 166.669 79.3866C166.669 78.7713 166.582 78.1929 166.409 77.6514C166.261 77.0853 166.014 76.6054 165.668 76.2116C165.347 75.7932 164.939 75.4609 164.445 75.2148C163.975 74.9686 163.419 74.8456 162.777 74.8456C162.134 74.8456 161.566 74.9686 161.072 75.2148C160.602 75.4609 160.194 75.7932 159.848 76.2116C159.527 76.6054 159.28 77.0853 159.107 77.6514C158.934 78.1929 158.848 78.7713 158.848 79.3866C158.848 80.0019 158.934 80.5926 159.107 81.1587C159.28 81.7002 159.527 82.1801 159.848 82.5985C160.194 82.9923 160.602 83.3123 161.072 83.5584C161.566 83.8045 162.134 83.9276 162.777 83.9276ZM162.777 88.5793C161.368 88.5793 160.096 88.3455 158.959 87.8779C157.847 87.3856 156.883 86.7334 156.068 85.9212C155.277 85.0844 154.671 84.1122 154.251 83.0046C153.831 81.8724 153.621 80.6664 153.621 79.3866C153.621 78.1067 153.831 76.913 154.251 75.8055C154.671 74.6979 155.277 73.7257 156.068 72.8889C156.883 72.0521 157.847 71.3998 158.959 70.9322C160.096 70.44 161.368 70.1938 162.777 70.1938C164.185 70.1938 165.446 70.44 166.558 70.9322C167.694 71.3998 168.658 72.0521 169.449 72.8889C170.264 73.7257 170.882 74.6979 171.302 75.8055C171.722 76.913 171.932 78.1067 171.932 79.3866C171.932 80.6664 171.722 81.8724 171.302 83.0046C170.882 84.1122 170.264 85.0844 169.449 85.9212C168.658 86.7334 167.694 87.3856 166.558 87.8779C165.446 88.3455 164.185 88.5793 162.777 88.5793Z" fill="white"/>
<path d="M145.815 66.2719C145.815 65.0172 146.836 64 148.096 64H151.301V88.0256H148.096C146.836 88.0256 145.815 87.0084 145.815 85.7536V66.2719Z" fill="white"/>
</g>
<ellipse cx="97.2325" cy="71.8887" rx="1.57097" ry="1.5647" fill="white"/>
</g>
</svg>
